<svg width="679" height="687" viewBox="0 0 679 687" fill="none" xmlns="http://www.w3.org/2000/svg">
<rect width="679" height="701" fill="#9D966D"/>
<path d="M546.011 543.373H593.758V527.685H546.011V543.373Z" fill="#EBEBEB"/>
<path d="M511.654 362.445H559.401V346.757H511.654V362.445Z" fill="#EBEBEB"/>
<path d="M572.641 563.141C580.572 563.015 600.901 562.665 608.561 562.567H620.389L619.764 563.197V547.509L620.443 548.21C612.512 548.21 592.292 548.112 584.633 548L572.696 547.846L573.022 547.509L572.696 563.197L572.641 563.141ZM572.641 563.141L572.329 547.453V547.13H572.655C578.617 547.046 590.581 546.906 596.529 546.85L620.402 546.752H621.081V547.453V563.141V563.786H620.47H608.425C600.82 563.702 580.586 563.338 572.723 563.197L572.641 563.141Z" fill="#EBEBEB"/>
<path d="M308.972 180.676C316.903 180.535 337.232 180.185 344.891 180.101L356.719 180.031L356.095 180.676V164.987L356.774 165.688C348.843 165.688 328.622 165.59 320.963 165.478L309.026 165.324L309.352 164.987L309.026 180.676H308.972ZM308.972 180.676L308.646 164.987V164.665H308.972C314.934 164.581 326.884 164.44 332.846 164.398L356.719 164.3H357.398V165.001L357.331 180.69V181.335H356.719L344.674 181.264C337.069 181.18 316.821 180.83 308.972 180.69V180.676Z" fill="#EBEBEB"/>
<path d="M335.603 200.486C343.533 200.346 363.862 199.995 371.522 199.911H383.35L382.725 200.556V184.868L383.404 185.569C375.473 185.569 355.253 185.471 347.594 185.358L335.657 185.204L335.983 184.868L335.603 200.486ZM335.603 200.486L335.277 184.798V184.475H335.603C341.564 184.391 353.528 184.251 359.476 184.209L383.35 184.111H384.029V184.812L383.961 200.486V201.131H383.35L371.304 201.061C363.7 200.977 343.465 200.626 335.603 200.486Z" fill="#EBEBEB"/>
<path d="M362.124 180.676H409.872V164.987H362.124V180.676Z" fill="#EBEBEB"/>
<path d="M58.6114 563.155H106.359V547.467H58.6114V563.155Z" fill="#EBEBEB"/>
<path d="M85.2417 78.6943H132.989V63.006L85.2417 63.006V78.6943Z" fill="#EBEBEB"/>
<path d="M58.6113 98.4626C66.542 98.3224 86.8713 97.9718 94.5304 97.8877H106.359L105.734 98.5186V82.8303L106.413 83.5313C98.4822 83.5313 78.2616 83.4331 70.6025 83.321L58.6656 83.1667L58.9372 82.7181L58.6113 98.4065V98.4626ZM58.6113 98.4626L58.2854 82.7181V82.3956H58.6113C64.5729 82.3115 76.5233 82.1713 82.485 82.1152L106.359 82.0171H107.038V82.7181V98.4065V99.0514H106.427H94.381C86.7762 98.9533 66.5285 98.6028 58.6792 98.4626H58.6113Z" fill="#EBEBEB"/>
<path d="M546.011 78.6804C553.942 78.5402 574.271 78.2037 581.93 78.1056H593.759L593.134 78.7365V63.0481L593.813 63.7491L569.939 63.651C563.991 63.651 552.014 63.4687 546.066 63.3846L546.391 63.0481L546.066 78.7365L546.011 78.6804ZM546.011 78.6804L545.685 62.992V62.6696H546.011C551.973 62.5854 563.937 62.4452 569.885 62.3892L593.759 62.291H594.438V62.992L594.37 78.6804V79.3253H593.759H581.713C574.108 79.2272 553.874 78.8767 546.011 78.7365V78.6804Z" fill="#EBEBEB"/>
<path d="M81.8467 60.4963V333.886H253.946V60.4963H81.8467ZM247.604 327.311H88.27V67.0577H247.604V327.311Z" fill="#EBEBEB"/>
<path d="M247.604 67.0576H88.2021V327.311H247.604V67.0576Z" fill="white"/>
<path d="M88.2022 200.458L247.604 200.458V193.897L88.2022 193.897V200.458Z" fill="#EBEBEB"/>
<path d="M70.1543 352.673H265.638V333.858H70.1543V352.673Z" fill="#DBDBDB"/>
<path d="M88.1886 67.0576H247.591V235.424H88.1886V67.0576ZM241.724 73.1283H94.0687V229.353H241.724V73.1283Z" fill="#DBDBDB"/>
<path d="M196.72 67.0576H193.542V229.367H196.72V67.0576Z" fill="#DBDBDB"/>
<path d="M142.251 67.0576H139.073V229.367H142.251V67.0576Z" fill="#DBDBDB"/>
<path d="M56.2891 637.854L127.095 637.517L197.901 637.391L339.5 637.153L481.099 637.391L551.905 637.503L622.711 637.854L551.905 638.19L481.099 638.317L339.5 638.555L197.901 638.317L127.095 638.19L56.2891 637.854Z" fill="#263238"/>
<path d="M537.483 643.308H446.28L462.413 628.965H521.336L537.483 643.308Z" fill="#DBDBDB"/>
<path d="M496.539 173.75H487.21V628.965H496.539V173.75Z" fill="#DBDBDB"/>
<path d="M496.539 173.75V207.973L487.21 211.688V173.75H496.539Z" fill="#C7C7C7"/>
<path d="M549.447 202.028H434.302L442.667 173.638L442.98 172.628L467.315 90.0364H516.434L540.796 172.656V172.67L541.068 173.61L549.447 202.028Z" fill="#9D966D"/>
<path d="M471.389 109.118C471.391 109.223 471.372 109.328 471.334 109.426C471.296 109.523 471.239 109.612 471.166 109.687C471.094 109.761 471.008 109.82 470.913 109.86C470.819 109.899 470.717 109.919 470.615 109.917C470.41 109.917 470.213 109.832 470.068 109.683C469.922 109.533 469.841 109.33 469.841 109.118C469.844 108.907 469.927 108.706 470.071 108.556C470.216 108.407 470.411 108.322 470.615 108.318C470.82 108.318 471.017 108.403 471.162 108.552C471.307 108.702 471.389 108.906 471.389 109.118ZM484.792 108.318C484.588 108.322 484.393 108.407 484.249 108.556C484.105 108.706 484.022 108.907 484.018 109.118C484.018 109.33 484.1 109.533 484.245 109.683C484.39 109.832 484.587 109.917 484.792 109.917C484.895 109.919 484.996 109.899 485.091 109.86C485.186 109.82 485.272 109.761 485.344 109.687C485.416 109.612 485.473 109.523 485.511 109.426C485.55 109.328 485.568 109.223 485.567 109.118C485.567 108.908 485.487 108.707 485.345 108.557C485.202 108.408 485.009 108.322 484.806 108.318H484.792ZM498.97 108.318C498.766 108.322 498.571 108.407 498.426 108.556C498.282 108.706 498.199 108.907 498.196 109.118C498.196 109.33 498.277 109.533 498.423 109.683C498.568 109.832 498.765 109.917 498.97 109.917C499.072 109.919 499.174 109.899 499.268 109.86C499.363 109.82 499.449 109.761 499.521 109.687C499.594 109.612 499.651 109.523 499.689 109.426C499.727 109.328 499.746 109.223 499.744 109.118C499.744 108.906 499.662 108.702 499.517 108.552C499.372 108.403 499.175 108.318 498.97 108.318ZM513.147 108.318C512.943 108.322 512.748 108.407 512.604 108.556C512.46 108.706 512.377 108.907 512.373 109.118C512.373 109.33 512.455 109.533 512.6 109.683C512.745 109.832 512.942 109.917 513.147 109.917C513.25 109.919 513.351 109.899 513.446 109.86C513.541 109.82 513.627 109.761 513.699 109.687C513.771 109.612 513.828 109.523 513.866 109.426C513.905 109.328 513.923 109.223 513.922 109.118C513.922 108.906 513.84 108.702 513.695 108.552C513.55 108.403 513.353 108.318 513.147 108.318ZM477.704 98.1399C477.499 98.1435 477.305 98.2288 477.16 98.3779C477.016 98.527 476.933 98.7282 476.93 98.939C476.93 99.151 477.011 99.3542 477.156 99.5041C477.302 99.654 477.498 99.7382 477.704 99.7382C477.806 99.7401 477.907 99.7207 478.002 99.6812C478.097 99.6417 478.183 99.5829 478.255 99.5083C478.327 99.4338 478.384 99.3449 478.423 99.2471C478.461 99.1493 478.48 99.0445 478.478 98.939C478.478 98.7271 478.396 98.5238 478.251 98.374C478.106 98.2241 477.909 98.1399 477.704 98.1399ZM491.881 98.1399C491.677 98.1435 491.482 98.2288 491.338 98.3779C491.193 98.527 491.111 98.7282 491.107 98.939C491.107 99.151 491.189 99.3542 491.334 99.5041C491.479 99.654 491.676 99.7382 491.881 99.7382C491.983 99.7401 492.085 99.7207 492.18 99.6812C492.274 99.6417 492.36 99.5829 492.433 99.5083C492.505 99.4338 492.562 99.3449 492.6 99.2471C492.638 99.1493 492.657 99.0445 492.655 98.939C492.655 98.7271 492.574 98.5238 492.429 98.374C492.283 98.2241 492.086 98.1399 491.881 98.1399ZM506.059 98.1399C505.855 98.1435 505.66 98.2288 505.515 98.3779C505.371 98.527 505.288 98.7282 505.285 98.939C505.285 99.151 505.366 99.3542 505.511 99.5041C505.657 99.654 505.853 99.7382 506.059 99.7382C506.161 99.7401 506.262 99.7207 506.357 99.6812C506.452 99.6417 506.538 99.5829 506.61 99.5083C506.682 99.4338 506.739 99.3449 506.778 99.2471C506.816 99.1493 506.835 99.0445 506.833 98.939C506.833 98.7271 506.751 98.5238 506.606 98.374C506.461 98.2241 506.264 98.1399 506.059 98.1399ZM456.437 129.601C456.233 129.604 456.038 129.69 455.894 129.839C455.75 129.988 455.667 130.189 455.663 130.4C455.663 130.612 455.745 130.815 455.89 130.965C456.035 131.115 456.232 131.199 456.437 131.199C456.54 131.201 456.641 131.182 456.736 131.142C456.831 131.103 456.917 131.044 456.989 130.969C457.061 130.895 457.118 130.806 457.156 130.708C457.195 130.61 457.213 130.505 457.211 130.4C457.211 130.188 457.13 129.985 456.985 129.835C456.84 129.685 456.643 129.601 456.437 129.601ZM470.615 129.601C470.418 129.611 470.232 129.698 470.093 129.843C469.955 129.988 469.875 130.182 469.868 130.386C469.868 130.598 469.95 130.801 470.095 130.951C470.24 131.101 470.437 131.185 470.642 131.185C470.744 131.187 470.846 131.168 470.94 131.128C471.035 131.089 471.121 131.03 471.194 130.955C471.266 130.881 471.323 130.792 471.361 130.694C471.399 130.596 471.418 130.491 471.416 130.386C471.414 130.28 471.392 130.175 471.351 130.078C471.309 129.981 471.25 129.893 471.175 129.82C471.101 129.747 471.013 129.69 470.916 129.652C470.82 129.614 470.718 129.597 470.615 129.601ZM484.792 129.601C484.588 129.604 484.393 129.69 484.249 129.839C484.105 129.988 484.022 130.189 484.018 130.4C484.018 130.612 484.1 130.815 484.245 130.965C484.39 131.115 484.587 131.199 484.792 131.199C484.895 131.201 484.996 131.182 485.091 131.142C485.186 131.103 485.272 131.044 485.344 130.969C485.416 130.895 485.473 130.806 485.511 130.708C485.55 130.61 485.568 130.505 485.567 130.4C485.567 130.19 485.487 129.989 485.345 129.84C485.202 129.69 485.009 129.604 484.806 129.601H484.792ZM498.97 129.601C498.766 129.604 498.571 129.69 498.426 129.839C498.282 129.988 498.199 130.189 498.196 130.4C498.196 130.612 498.277 130.815 498.423 130.965C498.568 131.115 498.765 131.199 498.97 131.199C499.073 131.201 499.176 131.181 499.272 131.141C499.367 131.101 499.454 131.04 499.526 130.964C499.599 130.888 499.656 130.798 499.693 130.698C499.73 130.599 499.748 130.493 499.744 130.386C499.74 130.176 499.657 129.977 499.513 129.83C499.368 129.683 499.173 129.601 498.97 129.601ZM513.147 129.601C512.943 129.604 512.748 129.69 512.604 129.839C512.46 129.988 512.377 130.189 512.373 130.4C512.373 130.612 512.455 130.815 512.6 130.965C512.745 131.115 512.942 131.199 513.147 131.199C513.25 131.201 513.351 131.182 513.446 131.142C513.541 131.103 513.627 131.044 513.699 130.969C513.771 130.895 513.828 130.806 513.866 130.708C513.905 130.61 513.923 130.505 513.922 130.4C513.922 130.188 513.84 129.985 513.695 129.835C513.55 129.685 513.353 129.601 513.147 129.601ZM527.325 129.601C527.121 129.604 526.926 129.69 526.782 129.839C526.637 129.988 526.554 130.189 526.551 130.4C526.551 130.612 526.633 130.815 526.778 130.965C526.923 131.115 527.12 131.199 527.325 131.199C527.427 131.201 527.529 131.182 527.623 131.142C527.718 131.103 527.804 131.044 527.876 130.969C527.949 130.895 528.006 130.806 528.044 130.708C528.082 130.61 528.101 130.505 528.099 130.4C528.099 130.188 528.018 129.985 527.872 129.835C527.727 129.685 527.53 129.601 527.325 129.601ZM463.499 119.352C463.295 119.356 463.1 119.441 462.956 119.59C462.811 119.739 462.728 119.94 462.725 120.151C462.725 120.363 462.807 120.567 462.952 120.716C463.097 120.866 463.294 120.95 463.499 120.95C463.601 120.952 463.703 120.933 463.797 120.893C463.892 120.854 463.978 120.795 464.05 120.721C464.123 120.646 464.18 120.557 464.218 120.459C464.256 120.362 464.275 120.257 464.273 120.151C464.273 119.944 464.195 119.745 464.056 119.596C463.917 119.447 463.727 119.359 463.526 119.352H463.499ZM477.677 119.352C477.472 119.356 477.277 119.441 477.133 119.59C476.989 119.739 476.906 119.94 476.902 120.151C476.902 120.363 476.984 120.567 477.129 120.716C477.274 120.866 477.471 120.95 477.677 120.95C477.779 120.952 477.88 120.933 477.975 120.893C478.07 120.854 478.156 120.795 478.228 120.721C478.3 120.646 478.357 120.557 478.395 120.459C478.434 120.362 478.452 120.257 478.451 120.151C478.451 119.944 478.373 119.745 478.234 119.596C478.094 119.447 477.904 119.359 477.704 119.352H477.677ZM491.854 119.352C491.65 119.356 491.455 119.441 491.311 119.59C491.166 119.739 491.083 119.94 491.08 120.151C491.08 120.363 491.162 120.567 491.307 120.716C491.452 120.866 491.649 120.95 491.854 120.95C491.956 120.952 492.058 120.933 492.152 120.893C492.247 120.854 492.333 120.795 492.405 120.721C492.478 120.646 492.535 120.557 492.573 120.459C492.611 120.362 492.63 120.257 492.628 120.151C492.628 119.944 492.55 119.745 492.411 119.596C492.272 119.447 492.082 119.359 491.881 119.352H491.854ZM506.032 119.352C505.827 119.356 505.633 119.441 505.488 119.59C505.344 119.739 505.261 119.94 505.258 120.151C505.258 120.363 505.339 120.567 505.484 120.716C505.629 120.866 505.826 120.95 506.032 120.95C506.134 120.952 506.235 120.933 506.33 120.893C506.425 120.854 506.511 120.795 506.583 120.721C506.655 120.646 506.712 120.557 506.75 120.459C506.789 120.362 506.807 120.257 506.806 120.151C506.806 119.944 506.728 119.745 506.589 119.596C506.449 119.447 506.259 119.359 506.059 119.352H506.032ZM520.209 119.352C520.005 119.356 519.81 119.441 519.666 119.59C519.521 119.739 519.439 119.94 519.435 120.151C519.435 120.363 519.517 120.567 519.662 120.716C519.807 120.866 520.004 120.95 520.209 120.95C520.311 120.952 520.413 120.933 520.507 120.893C520.602 120.854 520.688 120.795 520.761 120.721C520.833 120.646 520.89 120.557 520.928 120.459C520.966 120.362 520.985 120.257 520.983 120.151C520.983 119.944 520.905 119.745 520.766 119.596C520.627 119.447 520.437 119.359 520.236 119.352H520.209ZM456.383 150.883C456.179 150.887 455.984 150.972 455.84 151.121C455.695 151.27 455.613 151.471 455.609 151.682C455.609 151.894 455.691 152.097 455.836 152.247C455.981 152.397 456.178 152.481 456.383 152.481C456.485 152.483 456.587 152.464 456.681 152.424C456.776 152.385 456.862 152.326 456.935 152.252C457.007 152.177 457.064 152.088 457.102 151.99C457.14 151.893 457.159 151.788 457.157 151.682C457.158 151.48 457.084 151.284 456.95 151.136C456.816 150.988 456.633 150.897 456.437 150.883H456.383ZM470.561 150.883C470.356 150.887 470.162 150.972 470.017 151.121C469.873 151.27 469.79 151.471 469.787 151.682C469.787 151.894 469.868 152.097 470.013 152.247C470.158 152.397 470.355 152.481 470.561 152.481C470.663 152.483 470.764 152.464 470.859 152.424C470.954 152.385 471.04 152.326 471.112 152.252C471.184 152.177 471.241 152.088 471.279 151.99C471.318 151.893 471.336 151.788 471.335 151.682C471.335 151.48 471.261 151.284 471.127 151.136C470.994 150.988 470.811 150.897 470.615 150.883H470.561ZM484.738 150.883C484.534 150.887 484.339 150.972 484.195 151.121C484.05 151.27 483.968 151.471 483.964 151.682C483.964 151.894 484.046 152.097 484.191 152.247C484.336 152.397 484.533 152.481 484.738 152.481C484.84 152.483 484.942 152.464 485.036 152.424C485.131 152.385 485.217 152.326 485.29 152.252C485.362 152.177 485.419 152.088 485.457 151.99C485.495 151.893 485.514 151.788 485.512 151.682C485.513 151.482 485.441 151.289 485.31 151.141C485.179 150.993 484.999 150.901 484.806 150.883H484.738ZM498.916 150.883C498.711 150.887 498.517 150.972 498.372 151.121C498.228 151.27 498.145 151.471 498.142 151.682C498.142 151.894 498.223 152.097 498.368 152.247C498.513 152.397 498.71 152.481 498.916 152.481C499.018 152.483 499.119 152.464 499.214 152.424C499.309 152.385 499.395 152.326 499.467 152.252C499.539 152.177 499.596 152.088 499.635 151.99C499.673 151.893 499.692 151.788 499.69 151.682C499.69 151.48 499.616 151.284 499.483 151.136C499.349 150.988 499.166 150.897 498.97 150.883H498.916ZM513.093 150.883C512.889 150.887 512.694 150.972 512.55 151.121C512.405 151.27 512.323 151.471 512.319 151.682C512.319 151.894 512.401 152.097 512.546 152.247C512.691 152.397 512.888 152.481 513.093 152.481C513.195 152.483 513.297 152.464 513.392 152.424C513.486 152.385 513.572 152.326 513.645 152.252C513.717 152.177 513.774 152.088 513.812 151.99C513.85 151.893 513.869 151.788 513.867 151.682C513.868 151.48 513.794 151.284 513.66 151.136C513.526 150.988 513.343 150.897 513.147 150.883H513.093ZM527.271 150.883C527.066 150.887 526.872 150.972 526.727 151.121C526.583 151.27 526.5 151.471 526.497 151.682C526.497 151.894 526.578 152.097 526.723 152.247C526.869 152.397 527.065 152.481 527.271 152.481C527.373 152.483 527.474 152.464 527.569 152.424C527.664 152.385 527.75 152.326 527.822 152.252C527.894 152.177 527.951 152.088 527.99 151.99C528.028 151.893 528.047 151.788 528.045 151.682C528.045 151.48 527.971 151.284 527.838 151.136C527.704 150.988 527.521 150.897 527.325 150.883H527.271ZM463.445 140.635C463.24 140.638 463.046 140.723 462.901 140.873C462.757 141.022 462.674 141.223 462.671 141.434C462.671 141.646 462.752 141.849 462.897 141.999C463.043 142.149 463.239 142.233 463.445 142.233C463.547 142.235 463.648 142.215 463.743 142.176C463.838 142.136 463.924 142.078 463.996 142.003C464.068 141.928 464.125 141.84 464.164 141.742C464.202 141.644 464.221 141.539 464.219 141.434C464.22 141.236 464.15 141.044 464.022 140.896C463.894 140.749 463.717 140.655 463.526 140.635H463.445ZM477.622 140.635C477.418 140.638 477.223 140.723 477.079 140.873C476.934 141.022 476.852 141.223 476.848 141.434C476.848 141.646 476.93 141.849 477.075 141.999C477.22 142.149 477.417 142.233 477.622 142.233C477.724 142.235 477.826 142.215 477.921 142.176C478.015 142.136 478.101 142.078 478.174 142.003C478.246 141.928 478.303 141.84 478.341 141.742C478.379 141.644 478.398 141.539 478.396 141.434C478.397 141.236 478.327 141.044 478.199 140.896C478.071 140.749 477.895 140.655 477.704 140.635H477.622ZM491.8 140.635C491.596 140.638 491.401 140.723 491.256 140.873C491.112 141.022 491.029 141.223 491.026 141.434C491.026 141.646 491.107 141.849 491.252 141.999C491.398 142.149 491.594 142.233 491.8 142.233C491.902 142.235 492.003 142.215 492.098 142.176C492.193 142.136 492.279 142.078 492.351 142.003C492.423 141.928 492.48 141.84 492.519 141.742C492.557 141.644 492.576 141.539 492.574 141.434C492.575 141.236 492.505 141.044 492.377 140.896C492.249 140.749 492.072 140.655 491.881 140.635H491.8ZM505.977 140.635C505.773 140.638 505.578 140.723 505.434 140.873C505.289 141.022 505.207 141.223 505.203 141.434C505.203 141.646 505.285 141.849 505.43 141.999C505.575 142.149 505.772 142.233 505.977 142.233C506.079 142.235 506.181 142.215 506.276 142.176C506.37 142.136 506.456 142.078 506.529 142.003C506.601 141.928 506.658 141.84 506.696 141.742C506.734 141.644 506.753 141.539 506.751 141.434C506.752 141.236 506.682 141.044 506.554 140.896C506.426 140.749 506.25 140.655 506.059 140.635H505.977ZM520.155 140.635C519.951 140.638 519.756 140.723 519.611 140.873C519.467 141.022 519.384 141.223 519.381 141.434C519.381 141.646 519.462 141.849 519.607 141.999C519.753 142.149 519.949 142.233 520.155 142.233C520.257 142.235 520.358 142.215 520.453 142.176C520.548 142.136 520.634 142.078 520.706 142.003C520.778 141.928 520.835 141.84 520.874 141.742C520.912 141.644 520.931 141.539 520.929 141.434C520.93 141.236 520.86 141.044 520.732 140.896C520.604 140.749 520.427 140.655 520.236 140.635H520.155ZM442.98 172.628L442.667 173.638C442.784 173.572 442.881 173.474 442.948 173.355C443.015 173.237 443.049 173.102 443.048 172.965C443.051 172.848 443.028 172.733 442.98 172.628ZM456.437 172.18C456.232 172.18 456.035 172.264 455.89 172.414C455.745 172.563 455.663 172.767 455.663 172.979C455.667 173.189 455.75 173.391 455.894 173.54C456.038 173.689 456.233 173.774 456.437 173.778C456.643 173.778 456.84 173.694 456.985 173.544C457.13 173.394 457.211 173.191 457.211 172.979C457.213 172.873 457.195 172.768 457.156 172.671C457.118 172.573 457.061 172.484 456.989 172.409C456.917 172.335 456.831 172.276 456.736 172.236C456.641 172.197 456.54 172.178 456.437 172.18ZM470.615 172.18C470.41 172.18 470.213 172.264 470.068 172.414C469.922 172.563 469.841 172.767 469.841 172.979C469.844 173.189 469.927 173.391 470.071 173.54C470.216 173.689 470.411 173.774 470.615 173.778C470.82 173.778 471.017 173.694 471.162 173.544C471.307 173.394 471.389 173.191 471.389 172.979C471.391 172.873 471.372 172.768 471.334 172.671C471.296 172.573 471.239 172.484 471.166 172.409C471.094 172.335 471.008 172.276 470.913 172.236C470.819 172.197 470.717 172.178 470.615 172.18ZM484.792 172.18C484.587 172.18 484.39 172.264 484.245 172.414C484.1 172.563 484.018 172.767 484.018 172.979C484.022 173.189 484.105 173.391 484.249 173.54C484.393 173.689 484.588 173.774 484.792 173.778C484.998 173.778 485.195 173.694 485.34 173.544C485.485 173.394 485.567 173.191 485.567 172.979C485.568 172.874 485.55 172.771 485.513 172.674C485.475 172.577 485.419 172.489 485.349 172.414C485.278 172.34 485.193 172.281 485.1 172.241C485.007 172.2 484.907 172.179 484.806 172.18H484.792ZM498.97 172.18C498.765 172.18 498.568 172.264 498.423 172.414C498.277 172.563 498.196 172.767 498.196 172.979C498.199 173.189 498.282 173.391 498.426 173.54C498.571 173.689 498.766 173.774 498.97 173.778C499.175 173.778 499.372 173.694 499.517 173.544C499.662 173.394 499.744 173.191 499.744 172.979C499.746 172.873 499.727 172.768 499.689 172.671C499.651 172.573 499.594 172.484 499.521 172.409C499.449 172.335 499.363 172.276 499.268 172.236C499.174 172.197 499.072 172.178 498.97 172.18ZM513.147 172.18C512.942 172.18 512.745 172.264 512.6 172.414C512.455 172.563 512.373 172.767 512.373 172.979C512.377 173.189 512.46 173.391 512.604 173.54C512.748 173.689 512.943 173.774 513.147 173.778C513.353 173.778 513.55 173.694 513.695 173.544C513.84 173.394 513.922 173.191 513.922 172.979C513.923 172.873 513.905 172.768 513.866 172.671C513.828 172.573 513.771 172.484 513.699 172.409C513.627 172.335 513.541 172.276 513.446 172.236C513.351 172.197 513.25 172.178 513.147 172.18ZM527.325 172.18C527.12 172.18 526.923 172.264 526.778 172.414C526.633 172.563 526.551 172.767 526.551 172.979C526.554 173.189 526.637 173.391 526.782 173.54C526.926 173.689 527.121 173.774 527.325 173.778C527.53 173.778 527.727 173.694 527.872 173.544C528.018 173.394 528.099 173.191 528.099 172.979C528.101 172.873 528.082 172.768 528.044 172.671C528.006 172.573 527.949 172.484 527.876 172.409C527.804 172.335 527.718 172.276 527.623 172.236C527.529 172.197 527.427 172.178 527.325 172.18ZM540.796 172.67C540.776 172.767 540.776 172.868 540.796 172.965C540.791 173.092 540.819 173.219 540.876 173.332C540.933 173.445 541.018 173.541 541.122 173.61L540.796 172.67ZM449.349 161.917C449.144 161.92 448.95 162.006 448.805 162.155C448.661 162.304 448.578 162.505 448.575 162.716C448.575 162.928 448.656 163.131 448.801 163.281C448.946 163.431 449.143 163.515 449.349 163.515C449.451 163.517 449.552 163.498 449.647 163.458C449.742 163.419 449.828 163.36 449.9 163.285C449.972 163.211 450.029 163.122 450.068 163.024C450.106 162.926 450.125 162.821 450.123 162.716C450.123 162.504 450.041 162.301 449.896 162.151C449.751 162.001 449.554 161.917 449.349 161.917ZM463.526 161.917C463.322 161.92 463.127 162.006 462.983 162.155C462.838 162.304 462.756 162.505 462.752 162.716C462.752 162.928 462.834 163.131 462.979 163.281C463.124 163.431 463.321 163.515 463.526 163.515C463.628 163.517 463.73 163.498 463.825 163.458C463.919 163.419 464.005 163.36 464.078 163.285C464.15 163.211 464.207 163.122 464.245 163.024C464.283 162.926 464.302 162.821 464.3 162.716C464.3 162.504 464.219 162.301 464.074 162.151C463.928 162.001 463.731 161.917 463.526 161.917ZM477.704 161.917C477.499 161.92 477.305 162.006 477.16 162.155C477.016 162.304 476.933 162.505 476.93 162.716C476.93 162.928 477.011 163.131 477.156 163.281C477.302 163.431 477.498 163.515 477.704 163.515C477.806 163.517 477.907 163.498 478.002 163.458C478.097 163.419 478.183 163.36 478.255 163.285C478.327 163.211 478.384 163.122 478.423 163.024C478.461 162.926 478.48 162.821 478.478 162.716C478.478 162.504 478.396 162.301 478.251 162.151C478.106 162.001 477.909 161.917 477.704 161.917ZM491.881 161.917C491.677 161.92 491.482 162.006 491.338 162.155C491.193 162.304 491.111 162.505 491.107 162.716C491.107 162.928 491.189 163.131 491.334 163.281C491.479 163.431 491.676 163.515 491.881 163.515C491.983 163.517 492.085 163.498 492.18 163.458C492.274 163.419 492.36 163.36 492.433 163.285C492.505 163.211 492.562 163.122 492.6 163.024C492.638 162.926 492.657 162.821 492.655 162.716C492.655 162.504 492.574 162.301 492.429 162.151C492.283 162.001 492.086 161.917 491.881 161.917ZM506.059 161.917C505.855 161.92 505.66 162.006 505.515 162.155C505.371 162.304 505.288 162.505 505.285 162.716C505.285 162.928 505.366 163.131 505.511 163.281C505.657 163.431 505.853 163.515 506.059 163.515C506.161 163.517 506.262 163.498 506.357 163.458C506.452 163.419 506.538 163.36 506.61 163.285C506.682 163.211 506.739 163.122 506.778 163.024C506.816 162.926 506.835 162.821 506.833 162.716C506.833 162.504 506.751 162.301 506.606 162.151C506.461 162.001 506.264 161.917 506.059 161.917ZM520.236 161.917C520.032 161.92 519.837 162.006 519.693 162.155C519.548 162.304 519.466 162.505 519.462 162.716C519.462 162.928 519.544 163.131 519.689 163.281C519.834 163.431 520.031 163.515 520.236 163.515C520.338 163.517 520.44 163.498 520.535 163.458C520.629 163.419 520.715 163.36 520.788 163.285C520.86 163.211 520.917 163.122 520.955 163.024C520.993 162.926 521.012 162.821 521.01 162.716C521.01 162.504 520.929 162.301 520.784 162.151C520.638 162.001 520.442 161.917 520.236 161.917ZM534.414 161.917C534.21 161.92 534.015 162.006 533.87 162.155C533.726 162.304 533.643 162.505 533.64 162.716C533.64 162.928 533.721 163.131 533.866 163.281C534.012 163.431 534.208 163.515 534.414 163.515C534.516 163.517 534.617 163.498 534.712 163.458C534.807 163.419 534.893 163.36 534.965 163.285C535.037 163.211 535.094 163.122 535.133 163.024C535.171 162.926 535.19 162.821 535.188 162.716C535.188 162.504 535.106 162.301 534.961 162.151C534.816 162.001 534.619 161.917 534.414 161.917ZM442.26 193.476C442.055 193.476 441.858 193.56 441.713 193.71C441.567 193.86 441.486 194.063 441.486 194.275C441.489 194.486 441.572 194.687 441.716 194.836C441.861 194.985 442.056 195.071 442.26 195.074C442.465 195.074 442.662 194.99 442.807 194.84C442.952 194.69 443.034 194.487 443.034 194.275C443.036 194.17 443.017 194.065 442.979 193.967C442.941 193.869 442.884 193.78 442.811 193.706C442.739 193.631 442.653 193.572 442.558 193.533C442.464 193.493 442.362 193.474 442.26 193.476ZM456.437 193.476C456.232 193.476 456.035 193.56 455.89 193.71C455.745 193.86 455.663 194.063 455.663 194.275C455.667 194.486 455.75 194.687 455.894 194.836C456.038 194.985 456.233 195.071 456.437 195.074C456.643 195.074 456.84 194.99 456.985 194.84C457.13 194.69 457.211 194.487 457.211 194.275C457.213 194.17 457.195 194.065 457.156 193.967C457.118 193.869 457.061 193.78 456.989 193.706C456.917 193.631 456.831 193.572 456.736 193.533C456.641 193.493 456.54 193.474 456.437 193.476ZM470.615 193.476C470.41 193.476 470.213 193.56 470.068 193.71C469.922 193.86 469.841 194.063 469.841 194.275C469.844 194.486 469.927 194.687 470.071 194.836C470.216 194.985 470.411 195.071 470.615 195.074C470.82 195.074 471.017 194.99 471.162 194.84C471.307 194.69 471.389 194.487 471.389 194.275C471.391 194.17 471.372 194.065 471.334 193.967C471.296 193.869 471.239 193.78 471.166 193.706C471.094 193.631 471.008 193.572 470.913 193.533C470.819 193.493 470.717 193.474 470.615 193.476ZM484.806 193.476C484.601 193.476 484.404 193.56 484.259 193.71C484.114 193.86 484.032 194.063 484.032 194.275C484.035 194.486 484.118 194.687 484.263 194.836C484.407 194.985 484.602 195.071 484.806 195.074C485.011 195.074 485.208 194.99 485.353 194.84C485.499 194.69 485.58 194.487 485.58 194.275C485.582 194.17 485.563 194.065 485.525 193.967C485.487 193.869 485.43 193.78 485.357 193.706C485.285 193.631 485.199 193.572 485.104 193.533C485.01 193.493 484.908 193.474 484.806 193.476ZM498.984 193.476C498.778 193.476 498.581 193.56 498.436 193.71C498.291 193.86 498.209 194.063 498.209 194.275C498.213 194.486 498.296 194.687 498.44 194.836C498.584 194.985 498.779 195.071 498.984 195.074C499.189 195.074 499.386 194.99 499.531 194.84C499.676 194.69 499.758 194.487 499.758 194.275C499.76 194.168 499.74 194.062 499.701 193.964C499.662 193.865 499.604 193.775 499.53 193.701C499.457 193.626 499.369 193.567 499.273 193.529C499.176 193.49 499.073 193.472 498.97 193.476H498.984ZM513.161 193.476C512.956 193.476 512.759 193.56 512.614 193.71C512.469 193.86 512.387 194.063 512.387 194.275C512.391 194.486 512.473 194.687 512.618 194.836C512.762 194.985 512.957 195.071 513.161 195.074C513.366 195.074 513.563 194.99 513.708 194.84C513.854 194.69 513.935 194.487 513.935 194.275C513.937 194.168 513.918 194.062 513.879 193.964C513.84 193.865 513.782 193.775 513.708 193.701C513.634 193.626 513.546 193.567 513.45 193.529C513.354 193.49 513.251 193.472 513.147 193.476H513.161ZM527.339 193.476C527.133 193.476 526.936 193.56 526.791 193.71C526.646 193.86 526.565 194.063 526.565 194.275C526.568 194.486 526.651 194.687 526.795 194.836C526.94 194.985 527.134 195.071 527.339 195.074C527.544 195.074 527.741 194.99 527.886 194.84C528.031 194.69 528.113 194.487 528.113 194.275C528.115 194.168 528.095 194.062 528.056 193.964C528.017 193.865 527.959 193.775 527.885 193.701C527.812 193.626 527.724 193.567 527.628 193.529C527.531 193.49 527.428 193.472 527.325 193.476H527.339ZM541.516 193.476C541.311 193.476 541.114 193.56 540.969 193.71C540.824 193.86 540.742 194.063 540.742 194.275C540.746 194.486 540.828 194.687 540.973 194.836C541.117 194.985 541.312 195.071 541.516 195.074C541.721 195.074 541.918 194.99 542.063 194.84C542.209 194.69 542.29 194.487 542.29 194.275C542.292 194.168 542.273 194.062 542.234 193.964C542.195 193.865 542.137 193.775 542.063 193.701C541.989 193.626 541.901 193.567 541.805 193.529C541.709 193.49 541.606 193.472 541.503 193.476H541.516ZM449.362 183.227C449.157 183.227 448.96 183.311 448.815 183.461C448.67 183.611 448.588 183.814 448.588 184.026C448.592 184.237 448.674 184.438 448.819 184.588C448.963 184.737 449.158 184.822 449.362 184.826C449.568 184.826 449.764 184.741 449.91 184.591C450.055 184.442 450.136 184.238 450.136 184.026C450.14 183.919 450.122 183.811 450.084 183.711C450.046 183.61 449.988 183.519 449.914 183.443C449.84 183.366 449.752 183.307 449.655 183.267C449.557 183.228 449.453 183.209 449.349 183.213L449.362 183.227ZM463.54 183.227C463.334 183.227 463.138 183.311 462.992 183.461C462.847 183.611 462.766 183.814 462.766 184.026C462.769 184.237 462.852 184.438 462.996 184.588C463.141 184.737 463.336 184.822 463.54 184.826C463.745 184.826 463.942 184.741 464.087 184.591C464.232 184.442 464.314 184.238 464.314 184.026C464.318 183.919 464.3 183.811 464.262 183.711C464.223 183.61 464.165 183.519 464.092 183.443C464.018 183.366 463.929 183.307 463.832 183.267C463.735 183.228 463.631 183.209 463.526 183.213L463.54 183.227ZM477.717 183.227C477.512 183.227 477.315 183.311 477.17 183.461C477.025 183.611 476.943 183.814 476.943 184.026C476.947 184.237 477.029 184.438 477.174 184.588C477.318 184.737 477.513 184.822 477.717 184.826C477.923 184.826 478.119 184.741 478.265 184.591C478.41 184.442 478.491 184.238 478.491 184.026C478.495 183.919 478.477 183.811 478.439 183.711C478.401 183.61 478.343 183.519 478.269 183.443C478.195 183.366 478.107 183.307 478.01 183.267C477.912 183.228 477.808 183.209 477.704 183.213L477.717 183.227ZM491.895 183.227C491.69 183.227 491.493 183.311 491.347 183.461C491.202 183.611 491.121 183.814 491.121 184.026C491.124 184.237 491.207 184.438 491.351 184.588C491.496 184.737 491.691 184.822 491.895 184.826C492.1 184.826 492.297 184.741 492.442 184.591C492.587 184.442 492.669 184.238 492.669 184.026C492.673 183.919 492.655 183.811 492.617 183.711C492.578 183.61 492.521 183.519 492.447 183.443C492.373 183.366 492.284 183.307 492.187 183.267C492.09 183.228 491.986 183.209 491.881 183.213L491.895 183.227ZM506.072 183.227C505.867 183.227 505.67 183.311 505.525 183.461C505.38 183.611 505.298 183.814 505.298 184.026C505.302 184.237 505.384 184.438 505.529 184.588C505.673 184.737 505.868 184.822 506.072 184.826C506.278 184.826 506.474 184.741 506.62 184.591C506.765 184.442 506.846 184.238 506.846 184.026C506.85 183.919 506.832 183.811 506.794 183.711C506.756 183.61 506.698 183.519 506.624 183.443C506.55 183.366 506.462 183.307 506.365 183.267C506.267 183.228 506.163 183.209 506.059 183.213L506.072 183.227ZM520.25 183.227C520.045 183.227 519.848 183.311 519.703 183.461C519.557 183.611 519.476 183.814 519.476 184.026C519.479 184.237 519.562 184.438 519.706 184.588C519.851 184.737 520.046 184.822 520.25 184.826C520.455 184.826 520.652 184.741 520.797 184.591C520.942 184.442 521.024 184.238 521.024 184.026C521.028 183.919 521.01 183.811 520.972 183.711C520.933 183.61 520.876 183.519 520.802 183.443C520.728 183.366 520.639 183.307 520.542 183.267C520.445 183.228 520.341 183.209 520.236 183.213L520.25 183.227ZM534.427 183.227C534.222 183.227 534.025 183.311 533.88 183.461C533.735 183.611 533.653 183.814 533.653 184.026C533.657 184.237 533.739 184.438 533.884 184.588C534.028 184.737 534.223 184.822 534.427 184.826C534.633 184.826 534.83 184.741 534.975 184.591C535.12 184.442 535.201 184.238 535.201 184.026C535.205 183.919 535.187 183.811 535.149 183.711C535.111 183.61 535.053 183.519 534.979 183.443C534.905 183.366 534.817 183.307 534.72 183.267C534.622 183.228 534.518 183.209 534.414 183.213L534.427 183.227Z" fill="white"/>
<path d="M274.723 499.687L171.027 637.854H176.88L296.628 499.687H274.723Z" fill="#C7C7C7"/>
<path d="M284.46 499.687L233.223 637.854H239.062L301.87 499.687H284.46Z" fill="#C7C7C7"/>
<path d="M309.583 499.687L360.821 637.854H354.981L292.174 499.687H309.583Z" fill="#C7C7C7"/>
<path d="M318.532 499.687L422.216 637.854H416.376L296.628 499.687H318.532Z" fill="#C7C7C7"/>
<path d="M491.596 473.806V437.901L349.196 431.872L273.99 235.213H101.66L158.669 463.487L308.307 516.034H317.433L491.596 473.806Z" fill="#455A64"/>
<path d="M101.66 235.213H121.378L180.94 442.387L313.78 483.157L491.596 437.901V473.806L317.433 516.034H308.307L158.669 463.487L101.66 235.213Z" fill="#37474F"/>
<path d="M574.624 652.841C570.224 654.075 443.618 645.565 439.109 642.144C438.566 641.794 440.06 598.444 440.06 598.444C440.263 597.841 421.333 539.784 421.333 539.784L499.038 532.438L521.879 606.323C521.879 606.323 538.542 614.735 553.005 623.035C561.927 628.096 569.654 632.709 571.419 634.321C575.955 638.625 579.024 651.664 574.624 652.841Z" fill="#EB9481"/>
<path d="M575.113 653.332C570.591 654.551 443.835 645.705 439.204 642.214C437.453 640.896 436.869 620.595 440.073 598.401L521.771 604.262C521.771 604.262 567.264 629.974 571.935 634.363C576.607 638.751 579.649 652.154 575.113 653.332Z" fill="#9D966D"/>
<path opacity="0.1" d="M439.218 642.256C440.902 643.518 458.855 645.509 481.194 647.472L442.07 598.654L440.074 598.528C436.869 620.637 437.453 640.938 439.218 642.256Z" fill="black"/>
<path d="M573.646 648.018C552.434 646 466.69 639.901 445.573 639.606C445.397 639.606 445.397 639.733 445.573 639.747C466.554 642.228 552.339 647.598 573.633 648.425C574.067 648.397 574.094 648.061 573.646 648.018Z" fill="#263238"/>
<path d="M564.086 629.077C561.73 628.844 559.353 629.12 557.106 629.888C554.859 630.655 552.792 631.898 551.036 633.536C547.846 636.457 545.867 640.533 545.509 644.92C545.509 645.046 545.74 645.074 545.767 644.92C546.773 640.626 549.102 636.785 552.402 633.974C555.703 631.163 559.798 629.533 564.073 629.33C564.093 629.341 564.115 629.347 564.138 629.347C564.161 629.347 564.184 629.341 564.204 629.329C564.224 629.318 564.241 629.301 564.253 629.281C564.265 629.261 564.272 629.238 564.274 629.215C564.275 629.191 564.27 629.167 564.26 629.146C564.25 629.125 564.235 629.106 564.217 629.093C564.198 629.079 564.176 629.07 564.153 629.068C564.131 629.065 564.107 629.068 564.086 629.077Z" fill="#263238"/>
<path d="M528.262 606.912C519.761 606.197 509.698 608.608 503.94 615.422C503.723 615.688 504.09 616.011 504.348 615.899C512.046 612.39 520.086 609.744 528.33 608.005C528.449 607.97 528.553 607.894 528.624 607.789C528.696 607.685 528.73 607.558 528.723 607.43C528.715 607.303 528.665 607.182 528.581 607.087C528.497 606.993 528.385 606.931 528.262 606.912Z" fill="#263238"/>
<path d="M534.685 610.01C526.198 609.295 516.135 611.706 510.377 618.52C510.146 618.786 510.513 619.109 510.785 618.997C518.482 615.486 526.522 612.84 534.767 611.104C534.886 611.067 534.99 610.99 535.06 610.884C535.131 610.778 535.164 610.651 535.154 610.523C535.145 610.395 535.093 610.274 535.008 610.181C534.922 610.087 534.809 610.027 534.685 610.01Z" fill="#263238"/>
<path d="M541.082 613.122C532.58 612.407 522.518 614.805 516.773 621.618C516.542 621.885 516.909 622.207 517.167 622.095C524.869 618.585 532.914 615.938 541.163 614.202C541.288 614.173 541.398 614.099 541.474 613.993C541.55 613.887 541.586 613.757 541.576 613.625C541.567 613.494 541.511 613.371 541.42 613.278C541.329 613.186 541.209 613.131 541.082 613.122Z" fill="#263238"/>
<path d="M547.478 616.221C538.977 615.506 528.914 617.917 523.156 624.731C522.939 624.983 523.305 625.306 523.563 625.194C531.262 621.69 539.302 619.048 547.546 617.314C547.665 617.279 547.769 617.203 547.84 617.098C547.911 616.994 547.946 616.867 547.938 616.739C547.93 616.612 547.88 616.491 547.796 616.396C547.713 616.302 547.6 616.24 547.478 616.221Z" fill="#263238"/>
<path d="M452.35 619.109C442.844 618.478 441.825 633.788 451.386 634.419C460.946 635.05 461.91 619.754 452.35 619.109Z" fill="#263238"/>
<path d="M539.017 584.129C534.943 580.147 529.294 583.372 526.401 587.003C521.527 593.35 518.353 600.906 517.194 608.916C517.19 608.952 517.193 608.989 517.205 609.023C517.216 609.058 517.235 609.089 517.26 609.115C517.285 609.14 517.315 609.16 517.348 609.172C517.382 609.184 517.417 609.187 517.452 609.183C517.475 609.35 517.535 609.51 517.629 609.649C517.722 609.787 517.846 609.902 517.99 609.982C518.134 610.063 518.294 610.107 518.458 610.112C518.622 610.117 518.784 610.082 518.932 610.01C525.261 606.098 532.512 602.748 537.496 596.957C540.484 593.564 542.86 587.9 539.017 584.129ZM527.366 602.061C524.297 604.051 521.146 605.888 518.145 608.005C519.819 603.702 521.704 599.491 523.794 595.387C524.832 593.406 525.998 591.5 527.284 589.681C529.321 586.877 538.148 580.147 538.365 589.765C538.488 595.008 530.978 599.677 527.366 602.061Z" fill="#263238"/>
<path d="M495.86 610.697C503.18 612.393 510.961 610.697 518.321 610.094C518.483 610.065 518.635 609.997 518.766 609.896C518.897 609.794 519.003 609.662 519.075 609.51C519.146 609.358 519.182 609.19 519.178 609.021C519.175 608.852 519.133 608.687 519.055 608.538C519.083 608.516 519.106 608.487 519.121 608.454C519.137 608.421 519.145 608.385 519.145 608.349C519.145 608.312 519.137 608.276 519.121 608.243C519.106 608.21 519.083 608.182 519.055 608.159C513.582 602.36 506.732 598.144 499.187 595.934C494.774 594.728 488.323 595.527 487.305 601.205C486.381 606.589 491.596 609.715 495.86 610.697ZM491.053 605.341C485.784 597.406 496.77 597.56 500.002 598.584C502.073 599.284 504.097 600.127 506.059 601.107C510.133 603.084 513.935 605.622 517.819 607.991C514.18 608.089 510.594 608.496 506.955 608.734C502.65 609.014 493.945 609.715 491.053 605.341Z" fill="#263238"/>
<path d="M520.834 598.247L435.348 594.911C435.348 594.911 398.261 463.123 389.461 457.08C378.841 449.79 267.893 460.487 234.16 431.844C214.822 415.413 211.359 382.886 211.359 382.886L272.809 353.304C272.809 353.304 284.352 363.426 287.964 364.87C301.408 370.268 415.018 358.618 447.366 383.98C482.511 411.543 520.834 598.247 520.834 598.247Z" fill="#263238"/>
<path d="M520.834 598.247L435.348 594.911C435.348 594.911 398.261 463.123 389.461 457.08C378.841 449.79 267.893 460.487 234.16 431.844C214.822 415.413 211.359 382.886 211.359 382.886L272.809 353.304C272.809 353.304 284.352 363.426 287.964 364.87C301.408 370.268 415.018 358.618 447.366 383.98C482.511 411.543 520.834 598.247 520.834 598.247Z" fill="#263238"/>
<path d="M513.039 581.648C498.563 580.806 502.732 580.849 488.242 580.162C481.153 579.825 445.519 578.059 438.851 578.886C438.821 578.896 438.794 578.915 438.776 578.942C438.757 578.968 438.747 579 438.747 579.033C438.747 579.066 438.757 579.098 438.776 579.124C438.794 579.151 438.821 579.17 438.851 579.18C445.438 580.498 481.099 581.479 488.201 581.676C502.691 582.082 498.536 581.816 513.039 582.068C513.093 582.068 513.145 582.046 513.183 582.007C513.221 581.967 513.243 581.914 513.243 581.858C513.243 581.802 513.221 581.749 513.183 581.709C513.145 581.67 513.093 581.648 513.039 581.648Z" fill="#37474F"/>
<path d="M226.677 387.555C233.182 403.425 242.389 419.647 257.164 428.521C260.162 430.083 263.364 431.184 266.67 431.788C300.267 437.859 334.57 437.396 368.67 439.541C377.212 440.116 385.835 440.494 394.35 441.896C396.026 442.103 397.65 442.626 399.143 443.439C400.682 444.923 401.952 446.68 402.891 448.626C410.062 462.8 415.018 477.956 420.179 492.971C429.087 519.665 437.312 546.593 444.854 573.754C436.203 546.976 427.566 520.198 418.223 493.686C413.443 480.493 408.839 467.174 403.054 454.514C401.52 451.472 400.026 447.855 397.622 445.555C394.906 444.336 391.797 444.238 388.877 443.817C382.087 443.102 375.297 442.723 368.507 442.345C344.375 440.943 310.33 439.737 286.619 436.891C276.502 435.377 265.733 434.76 256.445 429.881C241.629 420.642 232.639 403.804 226.705 387.541L226.677 387.555Z" fill="#37474F"/>
<path d="M396.794 369.217L294.686 450.406C269.943 447.687 246.762 442.457 234.228 431.816C214.89 415.385 211.413 382.858 211.413 382.858L272.809 353.304C272.809 353.304 284.338 363.426 287.95 364.87C297.063 368.558 352.157 364.38 396.794 369.217Z" fill="#37474F"/>
<path d="M252.058 254.309C272.551 288.896 304.369 327.844 314.092 332.582C326.395 338.583 388.66 331.783 391.865 331.11C397.106 330.003 391.471 272.619 386.745 274.245C374.265 278.535 334.353 286.793 330.741 284.872C327.129 282.951 300.118 264.74 271.6 243.625C251.855 229.017 239.348 232.844 252.058 254.309Z" fill="#EB9481"/>
<path d="M381.598 271.988L382.752 340.532C382.752 340.532 326.531 343.153 313.766 335.947C301.001 328.741 266.236 280.82 252.656 256.44C239.076 232.059 252.099 228.287 269.196 240.695C286.294 253.103 328.541 282.923 330.456 283.218C332.371 283.512 381.598 271.988 381.598 271.988Z" fill="#9D966D"/>
<path d="M368.833 314.637C368.765 306.533 368.751 298.43 368.385 290.326C368.181 285.727 367.991 281.115 367.746 276.516C367.746 276.348 367.448 276.334 367.434 276.516C367.203 284.648 366.986 292.808 367.108 300.953C367.23 309.099 367.285 317.174 367.516 325.278C367.638 329.876 367.909 334.461 368.303 339.059C368.303 339.082 368.312 339.103 368.327 339.119C368.342 339.135 368.363 339.144 368.385 339.144C368.406 339.144 368.427 339.135 368.442 339.119C368.458 339.103 368.466 339.082 368.466 339.059C368.969 330.872 368.914 322.796 368.833 314.637Z" fill="#263238"/>
<path opacity="0.1" d="M374.564 340.756C358.498 341.163 323.435 341.387 313.698 335.891C300.933 328.685 266.168 280.764 252.588 256.398C246.07 244.691 245.676 237.723 248.935 235.031C249.393 235.099 249.847 235.198 250.293 235.326C277.521 256.356 336.512 308.44 374.564 340.756Z" fill="black"/>
<path d="M411.976 265.833L373.545 236.896L340.247 316.445L378.733 340.882L411.976 265.833Z" fill="#455A64"/>
<path opacity="0.1" d="M411.976 265.833L373.545 236.896L340.247 316.445L378.733 340.882L411.976 265.833Z" fill="black"/>
<path d="M406.965 265.441L374.278 241.214L372.73 243.682L346.29 307.655C349.065 310.644 351.612 313.85 353.908 317.245C356.801 321.787 365.112 336.368 375.501 337.602L406.965 265.441Z" fill="white"/>
<path d="M405.227 269.563C405.227 269.563 396.427 265.048 392.109 260.351C387.79 255.655 383.649 250.537 380.077 248.154C376.505 245.771 372.907 243.401 372.907 243.401L374.265 241.214L406.952 265.441L405.227 269.563Z" fill="#EBEBEB"/>
<path d="M320.95 341.275L382.535 342.915L411.976 265.833L347.892 259.286L320.95 341.275Z" fill="#455A64"/>
<path d="M409.573 275.633C412.085 282.923 419.296 292.457 419.391 298.163C419.464 299.58 419.092 300.983 418.331 302.165C417.57 303.347 416.461 304.245 415.168 304.725C415.168 304.725 420.383 308.131 419.636 313.375C419.255 316.067 414.76 317.805 414.76 317.805C414.76 317.805 418.834 320.721 417.884 325.334C417.123 329.007 412.723 330.199 412.723 330.199C412.723 330.199 415.358 334.882 413.43 338.373C409.532 345.453 378.461 342.186 374.822 329.862C373.124 324.114 380.675 325.334 380.675 325.334C380.675 325.334 370.232 320.876 370.721 314.244C371.209 307.613 380.933 309.814 380.933 309.814C380.933 309.814 370.843 305.398 372.024 298.598C373.246 291.504 382.603 295.415 382.603 295.415C382.603 295.415 376.166 289.807 378.23 284.844C381.639 276.572 393.657 288.686 400.651 287.732L405.567 276.516L409.573 275.633Z" fill="#EB9481"/>
<path d="M414.801 286.401C413.009 279.278 422.08 271.665 421.306 264.599C420.274 255.052 409.179 263.197 405.567 276.474L404.535 287.34L414.801 286.401Z" fill="#EB9481"/>
<path d="M412.058 330.493C412.08 330.493 412.1 330.502 412.116 330.518C412.131 330.534 412.139 330.555 412.139 330.578C412.139 330.6 412.131 330.621 412.116 330.637C412.1 330.653 412.08 330.662 412.058 330.662C401.167 332.244 390.068 330.361 380.24 325.264C379.928 325.096 380.063 324.507 380.444 324.633C390.651 328.156 401.301 330.13 412.058 330.493Z" fill="#263238"/>
<path d="M414.896 317.889C415.018 317.889 415.018 318.1 414.896 318.114C404.1 319.6 390.683 317.329 380.539 310.066C380.199 309.814 380.131 309.225 380.539 309.492C387.627 313.796 404.806 317.721 414.896 317.889Z" fill="#263238"/>
<path d="M382.019 294.616C392.014 301.206 403.041 303.813 414.733 304.809C414.882 304.809 414.855 305.047 414.733 305.075C408.88 306.197 401.493 304.753 395.83 303.126C390.55 301.721 385.718 298.912 381.815 294.981C381.598 294.826 381.815 294.42 382.019 294.616Z" fill="#263238"/>
<path d="M186.562 384.008C186.861 384.33 301.992 358.295 303.078 356.907C304.572 354.958 283.999 265.567 262.338 238.901C256.906 232.227 239.619 232.69 231.879 239.419C193.488 272.787 185.476 382.858 186.562 384.008Z" fill="#9D966D"/>
<path d="M222.522 247.986C190.663 281.9 156.17 349.098 163.748 363.426C172.276 379.325 216.71 331.797 216.438 329.049C216.289 326.974 226.392 287.69 238.085 256.342C249.777 224.993 230.398 239.602 222.522 247.986Z" fill="#F7A9A0"/>
<path d="M216.737 329.091C218.095 324.493 233.739 271.483 239.728 253.509C245.092 237.372 242.145 230.797 229.285 240.891C205.588 259.454 168.569 314.146 160.027 343.308C151.879 371.418 169.913 371.656 188.26 358.575C203.293 347.85 216.737 329.091 216.737 329.091Z" fill="#9D966D"/>
<path d="M213.939 337.055C219.724 315.118 226.406 293.453 233.983 272.058C228.226 294.013 221.544 315.679 213.939 337.055Z" fill="#263238"/>
<path d="M230.33 284.704C231.425 281.927 232.867 279.311 234.622 276.923C233.699 279.782 232.241 282.426 230.33 284.704Z" fill="#263238"/>
<path d="M234.5 240.022C235.504 241.424 236.55 242.826 237.609 244.13C238.669 245.434 239.769 246.766 240.882 248.056C243.109 250.621 245.404 253.117 247.794 255.5C250.184 257.884 252.629 260.183 255.182 262.342C257.735 264.501 260.369 266.548 263.058 268.511L262.148 268.721C262.239 268.565 262.316 268.4 262.379 268.23C262.461 268.048 262.529 267.838 262.597 267.642C262.732 267.221 262.868 266.814 262.99 266.38C263.235 265.539 263.438 264.669 263.642 263.786C264.036 262.048 264.376 260.267 264.688 258.487C265 256.706 265.272 254.925 265.571 253.131L266.372 247.747C266.372 249.556 266.222 251.378 266.1 253.201C265.978 255.024 265.801 256.832 265.598 258.641C265.394 260.449 265.122 262.258 264.783 264.067C264.606 264.964 264.416 265.861 264.185 266.758C264.077 267.207 263.941 267.656 263.805 268.16C263.74 268.389 263.663 268.614 263.574 268.833C263.535 268.948 263.49 269.06 263.439 269.17C263.389 269.307 263.325 269.439 263.248 269.562L262.909 270.193L262.339 269.787C259.623 267.81 256.907 265.819 254.34 263.562C252.982 262.468 251.814 261.305 250.565 260.141C249.94 259.566 249.356 258.935 248.745 258.346C248.134 257.758 247.55 257.127 246.966 256.51C244.611 254.02 242.386 251.404 240.298 248.673C238.175 245.93 236.238 243.04 234.5 240.022Z" fill="#263238"/>
<path d="M256.744 258.206C251.488 257.856 241.683 246.513 238.343 237.513C238.125 236.896 239.769 230.965 241.452 223.661C242.444 219.231 243.462 214.253 244.06 209.641L271.084 220.576C268.73 226.105 267.043 231.91 266.059 237.863C265.999 238.497 265.999 239.136 266.059 239.77C266.053 239.877 266.053 239.985 266.059 240.092C266.087 243.766 264.987 258.753 256.744 258.206Z" fill="#EB9481"/>
<path d="M265.991 239.742C265.999 239.849 265.999 239.957 265.991 240.064C265.018 240.065 264.045 239.98 263.085 239.812C247.251 237.218 246.002 216.679 246.002 210.37L271.084 220.507C268.729 226.037 267.032 231.841 266.032 237.793C265.97 238.441 265.956 239.092 265.991 239.742Z" fill="#263238"/>
<path d="M249.56 173.68C243.897 182.75 241.113 212.936 246.192 221.348C253.566 233.531 269.563 239.167 280.576 229.087C291.25 219.273 294.156 179.932 288.168 171.871C279.259 159.996 257.925 160.276 249.56 173.68Z" fill="#EB9481"/>
<path d="M267.635 195.537C268.51 195.465 269.38 195.343 270.242 195.172C271.172 195.171 272.076 194.862 272.822 194.289C273.02 194.059 273.139 193.769 273.161 193.462C273.183 193.156 273.107 192.85 272.944 192.593C272.544 192.133 272.032 191.792 271.462 191.605C270.891 191.418 270.283 191.391 269.699 191.527C268.482 191.622 267.341 192.176 266.494 193.083C266.312 193.302 266.195 193.571 266.159 193.857C266.122 194.144 266.167 194.435 266.288 194.695C266.409 194.955 266.601 195.173 266.84 195.323C267.079 195.472 267.355 195.547 267.635 195.537Z" fill="#A6A6A6"/>
<path d="M287.611 198.481C286.784 198.188 285.973 197.851 285.18 197.472C284.272 197.249 283.463 196.715 282.885 195.958C282.75 195.685 282.705 195.375 282.756 195.074C282.808 194.773 282.953 194.497 283.17 194.289C283.663 193.943 284.238 193.741 284.833 193.704C285.428 193.667 286.022 193.797 286.552 194.079C287.704 194.475 288.672 195.3 289.268 196.392C289.388 196.648 289.435 196.933 289.403 197.216C289.371 197.498 289.262 197.765 289.087 197.984C288.913 198.204 288.681 198.368 288.42 198.456C288.158 198.544 287.877 198.553 287.611 198.481Z" fill="#A6A6A6"/>
<path d="M266.29 219.413C266.698 219.946 267.091 220.661 267.798 220.815C268.529 220.9 269.27 220.824 269.97 220.59C269.979 220.597 269.986 220.605 269.99 220.615C269.995 220.625 269.998 220.636 269.998 220.647C269.998 220.657 269.995 220.668 269.99 220.678C269.986 220.688 269.979 220.696 269.97 220.703C269.638 221.058 269.221 221.317 268.76 221.452C268.3 221.588 267.813 221.595 267.349 221.474C266.956 221.32 266.617 221.048 266.375 220.693C266.133 220.338 265.999 219.917 265.991 219.483C266.073 219.357 266.168 219.343 266.29 219.413Z" fill="#263238"/>
<path d="M269.101 213.623C269.502 214.488 270.07 215.259 270.771 215.888C271.472 216.518 272.29 216.992 273.175 217.282C273.949 217.535 274.754 217.677 275.565 217.702C275.723 217.723 275.883 217.723 276.041 217.702H276.475C276.583 217.695 276.685 217.651 276.766 217.578C276.847 217.504 276.903 217.405 276.923 217.296C276.931 217.226 276.931 217.155 276.923 217.086V216.903C277.154 215.361 277.304 212.964 277.304 212.964C277.82 213.328 280.468 214.997 280.536 214.183C280.97 207.384 281.459 199.827 280.536 192.971C280.525 192.93 280.501 192.893 280.468 192.867C280.434 192.841 280.394 192.827 280.352 192.827C280.311 192.827 280.27 192.841 280.237 192.867C280.204 192.893 280.18 192.93 280.169 192.971C279.504 199.49 279.938 206.08 279.368 212.599C278.42 211.992 277.396 211.521 276.326 211.197C276.109 211.197 276.122 215.824 275.973 216.511V216.595C273.393 216.595 271.573 215.543 269.332 213.468C269.169 213.328 269.006 213.44 269.101 213.623Z" fill="#263238"/>
<path d="M271.6 201.215C271.6 201.131 271.437 201.215 271.424 201.369C271.179 203.374 270.568 205.645 268.708 206.01C268.708 206.01 268.708 206.122 268.708 206.136C270.948 206.164 271.736 203.164 271.6 201.215Z" fill="#263238"/>
<path d="M270.242 198.831C267.159 198.074 265.924 204.439 268.775 205.197C271.627 205.954 272.822 199.462 270.242 198.831Z" fill="#263238"/>
<path d="M283.007 202.743C283.007 202.673 283.143 202.869 283.129 202.953C282.668 204.93 282.464 207.272 284.066 208.295C284.066 208.295 284.066 208.435 284.066 208.407C281.975 207.65 282.274 204.538 283.007 202.743Z" fill="#263238"/>
<path d="M285.18 201.047C288.317 201.467 287.271 207.917 284.365 207.538C281.459 207.159 282.464 200.696 285.18 201.047Z" fill="#263238"/>
<g opacity="0.2">
<path d="M272.469 208.898C271.396 213.553 266.643 216.258 262.325 216.805C266.399 215.291 270.473 213.062 272.469 208.898Z" fill="black"/>
<path d="M279.246 212.108C279.382 215.291 279.762 218.445 281.649 221.025C278.933 219.104 278.404 215.165 279.246 212.108Z" fill="black"/>
</g>
<path d="M243.082 200.051C247.305 201.818 251.841 195.691 253.253 193.041C254.666 190.391 255.779 177.872 258.346 173.96C259.455 172.168 261.118 170.815 263.066 170.123C265.014 169.43 267.132 169.439 269.074 170.147C272.537 171.675 276.652 177.072 279.327 177.157C282.002 177.241 283.265 171.436 285.112 171.661C289.186 172.165 291.019 183.339 291.264 187.98C291.264 187.98 295.474 167.988 274.968 163.417C256.227 159.211 248.691 170.427 246.45 176.035C241.982 186.886 243.082 200.051 243.082 200.051Z" fill="#A6A6A6"/>
<path d="M264.715 211.197C263.071 210.727 261.588 209.79 260.434 208.492C259.281 207.195 258.503 205.589 258.19 203.857C257.877 202.126 258.041 200.339 258.664 198.699C259.286 197.059 260.342 195.633 261.711 194.582C263.08 193.531 264.707 192.898 266.407 192.755C268.108 192.612 269.813 192.964 271.329 193.772C272.844 194.58 274.11 195.811 274.981 197.326C275.853 198.84 276.295 200.576 276.258 202.337C276.205 204.829 275.195 207.198 273.45 208.923C271.706 210.647 269.37 211.586 266.956 211.534C266.198 211.515 265.446 211.402 264.715 211.197ZM269.264 194.289C268.632 194.104 267.979 194.005 267.322 193.995C265.315 193.951 263.368 194.699 261.876 196.086C260.384 197.472 259.461 199.394 259.293 201.459C259.126 203.525 259.727 205.578 260.975 207.202C262.223 208.825 264.023 209.897 266.009 210.198C267.996 210.499 270.018 210.007 271.665 208.822C273.313 207.638 274.461 205.85 274.875 203.822C275.29 201.794 274.941 199.679 273.898 197.908C272.856 196.137 271.199 194.843 269.264 194.289Z" fill="#37474F"/>
<path d="M285.384 214.394C282.029 213.426 279.952 209.01 280.671 204.159C280.982 201.838 281.989 199.676 283.55 197.976C284.176 197.2 284.987 196.604 285.902 196.246C286.818 195.889 287.807 195.783 288.774 195.939C289.741 196.094 290.653 196.505 291.42 197.133C292.187 197.76 292.784 198.582 293.151 199.519C294.136 201.631 294.454 204.009 294.061 206.318C293.287 211.436 289.661 215.123 285.913 214.534L285.384 214.394ZM289.037 197.289L288.575 197.191C287.801 197.103 287.019 197.209 286.293 197.5C285.567 197.79 284.92 198.256 284.406 198.86C283.03 200.377 282.143 202.297 281.866 204.355C281.201 208.786 283.116 212.767 286.158 213.286C289.2 213.805 292.187 210.552 292.866 206.122C293.211 204.071 292.931 201.96 292.065 200.079C291.775 199.423 291.356 198.836 290.835 198.356C290.314 197.875 289.701 197.512 289.037 197.289Z" fill="#37474F"/>
<path d="M275.796 203.36L275.172 202.294C276.706 201.327 280.101 200.248 281.962 203.023L280.957 203.724C279.286 201.229 275.932 203.29 275.796 203.36Z" fill="#37474F"/>
<path d="M235.341 199.308L234.364 198.565C234.69 198.102 237.718 193.952 240.461 193.924C243.204 193.896 258.93 198.13 259.609 198.243L259.31 199.462C254.747 198.271 242.457 195.172 240.475 195.186C238.492 195.2 236.156 198.173 235.341 199.308Z" fill="#37474F"/>
<path d="M249.084 198.803C249.084 198.803 245.133 187.756 240.448 188.989C235.762 190.223 237.08 205.014 241.425 208.169C241.955 208.612 242.565 208.94 243.221 209.134C243.876 209.327 244.562 209.381 245.239 209.294C245.915 209.206 246.567 208.978 247.155 208.623C247.744 208.268 248.257 207.794 248.663 207.229L249.084 198.803Z" fill="#EB9481"/>
<path d="M240.923 193.209V193.336C243.938 195.663 244.888 199.378 245.282 203.066C245.177 202.663 244.987 202.289 244.728 201.969C244.468 201.649 244.144 201.392 243.779 201.214C243.413 201.037 243.014 200.944 242.61 200.942C242.206 200.939 241.806 201.028 241.439 201.201C241.33 201.201 241.439 201.411 241.439 201.411C242.083 201.376 242.722 201.549 243.267 201.906C243.812 202.262 244.237 202.785 244.481 203.402C244.892 204.43 245.188 205.502 245.363 206.599C245.445 206.949 246.029 206.935 246.002 206.599V206.5C247.156 202.028 245.431 194.878 240.923 193.209Z" fill="#263238"/>
<g opacity="0.2">
<path d="M277.399 188.177C278.421 188.44 279.46 188.628 280.508 188.737C281.581 188.737 282.641 188.653 283.713 188.737C285.718 189.017 287.658 189.663 289.444 190.644C289.607 190.714 289.566 190.826 289.444 190.756C287.525 189.809 285.433 189.293 283.306 189.242C281.562 189.348 279.812 189.207 278.105 188.821C274.207 187.812 270.269 187.335 266.44 188.821C269.951 187.493 273.764 187.269 277.399 188.177Z" fill="black"/>
<path d="M277.602 185.274C278.578 185.511 279.566 185.684 280.563 185.793C281.568 185.793 282.586 185.723 283.591 185.793C285.49 186.057 287.329 186.664 289.023 187.588C289.172 187.658 289.145 187.77 289.023 187.7C287.199 186.811 285.214 186.333 283.197 186.298C281.544 186.402 279.884 186.265 278.268 185.891C274.574 184.938 270.839 184.489 267.214 185.891C270.54 184.625 274.157 184.41 277.602 185.274Z" fill="black"/>
</g>
<path d="M266.358 237.639L259.093 253.678L239.008 232.396L232.897 238.803C232.897 238.803 252.045 272.198 252.221 270.726L259.595 256.931L269.183 267.025V242.49L266.358 237.639Z" fill="#EBEBEB"/>
<path d="M269.97 254.897C269.835 250.846 269.821 246.766 269.509 242.728C269.509 242.588 269.264 242.518 269.224 242.728C268.259 246.598 268.83 262.09 268.68 265.791C268.287 265.342 259.785 256.888 259.69 257.015C258.115 259.188 252.71 269.24 252.33 270.151C249.302 264.852 236.414 243.906 232.788 238.873C232.68 238.732 232.449 238.873 232.53 238.999C235.246 244.607 251.814 272.212 252.072 272.142C254.894 267.428 257.469 262.56 259.785 257.561C261.143 259.384 269.753 268.889 269.807 268.301C270.102 263.839 270.157 259.365 269.97 254.897Z" fill="#263238"/>
<path opacity="0.6" d="M309.475 279.446C309.475 279.446 331.895 268.735 331.882 254.435C331.868 240.134 302.739 230.965 302.712 219.777C302.685 208.589 315.382 202 315.382 202C315.382 202 295.351 209.094 295.365 223.24C295.379 237.386 314.594 246.934 316.441 255.935C319.008 268.427 309.475 279.446 309.475 279.446Z" fill="#EBEBEB"/>
<path opacity="0.6" d="M310.575 279.447C310.575 279.447 288.127 271.035 288.113 259.819C288.1 248.603 317.188 241.27 317.174 232.48C317.161 223.689 304.464 218.544 304.464 218.544C304.464 218.544 324.562 224.096 324.562 235.213C324.562 246.331 302.549 254.014 300.987 263.057C299.425 272.1 310.575 279.447 310.575 279.447Z" fill="#EBEBEB"/>
<path d="M320.438 315.393L299.09 315.427L299.095 318.862L320.443 318.828L320.438 315.393Z" fill="#9D966D"/>
<path opacity="0.7" d="M320.438 315.393L299.09 315.427L299.095 318.862L320.443 318.828L320.438 315.393Z" fill="white"/>
<path opacity="0.1" d="M320.438 315.393L299.09 315.427L299.094 317.698L320.441 317.664L320.438 315.393Z" fill="black"/>
<path d="M273.732 306.239C275.217 308.575 277.436 310.312 280.015 311.157C282.595 312.003 285.378 311.904 287.896 310.879C288.958 310.452 289.969 309.902 290.911 309.239L288.195 305.033C287.691 305.398 287.154 305.712 286.592 305.972C285.04 306.715 283.278 306.852 281.635 306.357C279.992 305.862 278.579 304.769 277.657 303.28C274.723 299.074 273.664 289.345 276.625 285.615C276.815 285.335 277.67 284.9 281.12 285.615C281.744 285.769 282.478 285.938 283.279 286.162C283.913 286.38 284.569 286.526 285.234 286.597L285.316 284.101L285.547 281.62C285.329 281.62 284.976 281.465 284.528 281.339C282.96 280.903 281.362 280.589 279.748 280.4C277.209 280.133 274.56 280.4 272.958 282.517C268.096 288.602 270.066 300.925 273.732 306.239Z" fill="#9D966D"/>
<path opacity="0.7" d="M273.732 306.239C275.217 308.575 277.436 310.312 280.015 311.157C282.595 312.003 285.378 311.904 287.896 310.879C288.958 310.452 289.969 309.902 290.911 309.239L288.195 305.033C287.691 305.398 287.154 305.712 286.592 305.972C285.04 306.715 283.278 306.852 281.635 306.357C279.992 305.862 278.579 304.769 277.657 303.28C274.723 299.074 273.664 289.345 276.625 285.615C276.815 285.335 277.67 284.9 281.12 285.615C281.744 285.769 282.478 285.938 283.279 286.162C283.913 286.38 284.569 286.526 285.234 286.597L285.316 284.101L285.547 281.62C285.329 281.62 284.976 281.465 284.528 281.339C282.96 280.903 281.362 280.589 279.748 280.4C277.209 280.133 274.56 280.4 272.958 282.517C268.096 288.602 270.066 300.925 273.732 306.239Z" fill="white"/>
<path opacity="0.1" d="M288.222 305.089C287.718 305.454 287.181 305.768 286.62 306.028L287.978 310.879C289.04 310.452 290.051 309.902 290.992 309.239L288.222 305.089Z" fill="black"/>
<path opacity="0.1" d="M279.748 280.4L281.188 285.713C281.812 285.868 282.546 286.036 283.347 286.26C283.981 286.479 284.637 286.624 285.302 286.695L285.384 284.199L285.615 281.718C285.397 281.718 285.044 281.564 284.596 281.437C283.008 280.965 281.387 280.618 279.748 280.4Z" fill="black"/>
<path d="M338.142 273.796C338.142 273.796 335.603 296.228 331.203 305.734C326.803 315.24 320.624 316.249 316.781 316.263H302.834C299.004 316.263 292.826 315.225 288.385 305.79C283.944 296.355 281.364 273.881 281.364 273.881L338.142 273.796Z" fill="#9D966D"/>
<path opacity="0.7" d="M338.142 273.796C338.142 273.796 335.603 296.228 331.203 305.734C326.803 315.24 320.624 316.249 316.781 316.263H302.834C299.004 316.263 292.826 315.225 288.385 305.79C283.944 296.355 281.364 273.881 281.364 273.881L338.142 273.796Z" fill="white"/>
<g opacity="0.1">
<path d="M335.087 292.457C334.652 294.532 334.177 296.579 333.647 298.5L285.832 298.584C285.302 296.649 284.813 294.602 284.365 292.541L335.087 292.457Z" fill="black"/>
<path d="M332.995 300.785C332.656 301.864 332.33 302.874 331.963 303.813L287.529 303.883C287.163 302.958 286.823 301.935 286.497 300.869L332.995 300.785Z" fill="black"/>
<path d="M336.186 286.779C336.01 287.76 335.82 288.77 335.616 289.793L283.835 289.877C283.618 288.854 283.442 287.845 283.265 286.863L336.186 286.779Z" fill="black"/>
</g>
<path d="M164.467 365.235C175.82 370.941 195.701 363.721 243.231 347.752C249.818 345.551 245.513 292.485 238.356 294.476C229.353 296.972 194.9 308.692 192.51 309.898C172.222 319.88 156.768 361.365 164.467 365.235Z" fill="#EB9481"/>
<path d="M297.266 294.42C297.416 300.617 282.613 299.705 282.613 299.705C284.802 301.124 286.436 303.293 287.231 305.832C288.439 310.375 282.07 314.244 282.07 314.244C284.042 316.213 285.395 318.748 285.954 321.521C286.674 325.979 280.807 330.9 280.807 330.9C281.609 333.737 281.436 336.773 280.318 339.494C274.886 351.439 241.846 352.266 232.367 350.444L218.787 301.921C218.787 301.921 246.11 282.853 259.527 282.012C267.01 281.521 297.035 284.9 297.266 294.42Z" fill="#EB9481"/>
<path d="M282.464 299.467C274.588 297.28 266.168 297.042 258.142 296.901C258.106 296.901 258.072 296.916 258.046 296.942C258.021 296.969 258.006 297.004 258.006 297.042C258.006 297.079 258.021 297.114 258.046 297.141C258.072 297.167 258.106 297.182 258.142 297.182C266.168 297.813 274.438 299.481 282.41 299.86C282.46 299.867 282.511 299.853 282.552 299.822C282.593 299.79 282.62 299.743 282.627 299.691C282.634 299.639 282.621 299.586 282.591 299.544C282.56 299.502 282.514 299.474 282.464 299.467Z" fill="#263238"/>
<path d="M281.948 314.048C280.114 313.725 278.246 313.655 276.394 313.838C274.425 313.838 272.456 314.006 270.486 314.146C266.548 314.412 262.624 314.777 258.699 315.268C258.536 315.268 258.522 315.562 258.699 315.548C262.624 315.282 266.548 315.085 270.486 315.001C272.456 315.001 274.425 314.917 276.38 314.903C278.241 315.012 280.109 314.908 281.948 314.595C282.008 314.581 282.062 314.546 282.1 314.496C282.138 314.446 282.159 314.385 282.159 314.321C282.159 314.258 282.138 314.196 282.1 314.146C282.062 314.097 282.008 314.062 281.948 314.048Z" fill="#263238"/>
<path d="M280.644 330.872C278.981 330.61 277.286 330.644 275.633 330.97L270.201 331.419C266.616 331.699 263.031 331.98 259.446 332.134C259.256 332.134 259.256 332.428 259.446 332.428C263.099 332.288 266.752 332.204 270.405 332.036L275.837 331.755C277.48 331.82 279.122 331.583 280.685 331.054C280.685 331.054 280.726 330.872 280.644 330.872Z" fill="#263238"/>
<path d="M229.04 291.924L216.221 366.525C216.221 366.525 170.049 373.058 160.964 365.123C154.527 359.445 169.533 319.53 192.116 308.51L229.04 291.924Z" fill="#9D966D"/>
<path d="M169.981 331.25C171.733 326.498 179.161 315.029 192.116 308.454C192.238 308.454 192.347 308.566 192.238 308.636C183.045 314.496 172.222 326.862 170.157 331.349C170.103 331.475 169.94 331.377 169.981 331.25Z" fill="#263238"/>
<path d="M205.153 357.412C205.846 350.121 206.905 342.887 207.991 335.653C209.078 328.418 210.137 321.156 211.4 313.936C212.106 309.87 212.758 305.776 213.641 301.724C213.641 301.626 213.844 301.64 213.831 301.724C213.152 309.001 212.106 316.249 211.115 323.483C210.123 330.718 208.969 337.98 207.801 345.214C207.136 349.294 206.443 353.374 205.547 357.426C205.465 357.65 205.14 357.622 205.153 357.412Z" fill="#263238"/>
<path d="M228.769 291.349C226.124 292.169 223.533 293.167 221.015 294.336C218.475 295.443 215.936 296.579 213.423 297.757C208.412 300.07 197.535 304.416 189.169 310.108C189.088 310.178 189.848 310.319 189.943 310.248C193.787 307.332 226.08 293.817 228.538 292.401C228.538 292.611 227.845 297.378 227.886 297.602C227.927 297.827 228.13 297.827 228.198 297.602C228.361 297.196 229.122 292.261 229.258 291.854C229.273 291.785 229.271 291.712 229.252 291.643C229.233 291.575 229.198 291.512 229.149 291.462C229.1 291.411 229.039 291.375 228.973 291.355C228.906 291.335 228.836 291.333 228.769 291.349Z" fill="#263238"/>
<path d="M218.271 354.608C217.782 358.73 217.212 362.837 216.628 366.945C210.504 367.913 204.406 368.586 198.173 369.076C189.101 369.693 179.894 370.044 170.864 368.572C169.872 368.375 168.881 368.137 167.89 367.913C175.915 368.95 183.995 368.459 192.035 368.053C200.074 367.646 208.141 366.861 216.153 366.048L215.759 366.441C216.56 362.487 217.375 358.533 218.271 354.608Z" fill="#263238"/>
<path d="M561.248 378.26C548.279 366.272 494.339 344.527 491.596 343.21C488.989 342.326 468.008 339.592 468.008 339.592C467.397 339.719 412.262 314.062 412.262 314.062L393.969 380.475L460.362 400.972C460.362 400.972 516.76 421.287 533.368 421.175C544.191 421.063 568.473 384.947 561.248 378.26Z" fill="#EB9481"/>
<path d="M533.368 421.147C516.76 421.259 460.362 400.972 460.362 400.972L445.954 396.528L459.248 335.737C464.341 338.05 467.777 339.578 467.994 339.578C467.994 339.578 488.989 342.312 491.582 343.195C494.298 344.597 548.279 366.3 561.248 378.245C568.472 384.947 544.191 421.063 533.368 421.147Z" fill="#EBEBEB"/>
<path d="M533.368 421.147C516.76 421.259 460.362 400.972 460.362 400.972L455.446 399.458C457.062 394.761 461.231 382.479 463.024 376.072C465.292 368.025 467.994 339.62 467.994 339.62C467.994 339.62 488.989 342.354 491.582 343.238C494.298 344.64 548.279 366.342 561.248 378.288C568.472 384.947 544.191 421.063 533.368 421.147Z" fill="#9D966D"/>
<path d="M528.099 416.562C526.171 406.356 528.099 395.728 531.752 389.363C535.215 383.265 540.552 377.629 547.179 376.745C547.369 376.745 547.451 377.194 547.26 377.264C535.229 381.863 526.741 399.107 528.493 416.422C528.534 416.843 528.167 416.913 528.099 416.562Z" fill="#263238"/>
<path d="M482.47 393.822C481.778 385.059 484.113 374.67 490.713 368.726C490.958 368.502 491.284 368.88 491.161 369.146C487.764 377.112 485.205 385.432 483.53 393.962C483.491 394.086 483.411 394.193 483.304 394.263C483.197 394.333 483.069 394.363 482.944 394.346C482.818 394.329 482.702 394.268 482.615 394.172C482.529 394.076 482.478 393.952 482.47 393.822Z" fill="#263238"/>
<path d="M488.513 396.836C487.821 388.059 490.157 377.671 496.757 371.726C497.015 371.502 497.327 371.88 497.205 372.147C493.817 380.097 491.258 388.397 489.573 396.906C489.539 397.029 489.465 397.136 489.363 397.21C489.262 397.284 489.139 397.32 489.016 397.311C488.892 397.303 488.775 397.252 488.683 397.165C488.592 397.079 488.532 396.962 488.513 396.836Z" fill="#263238"/>
<path d="M494.556 399.836C493.864 391.06 496.2 380.671 502.8 374.726C503.058 374.502 503.37 374.881 503.248 375.147C499.878 383.099 497.338 391.399 495.67 399.906C495.661 400.059 495.594 400.201 495.483 400.303C495.372 400.404 495.227 400.455 495.079 400.446C494.932 400.437 494.794 400.367 494.696 400.253C494.597 400.139 494.547 399.989 494.556 399.836Z" fill="#263238"/>
<path d="M500.6 402.837C499.907 394.06 502.243 383.671 508.843 377.727C509.101 377.503 509.413 377.881 509.291 378.147C505.903 386.098 503.345 394.397 501.659 402.907C501.625 403.03 501.551 403.137 501.45 403.211C501.348 403.285 501.226 403.32 501.102 403.312C500.978 403.304 500.861 403.252 500.77 403.166C500.678 403.079 500.618 402.963 500.6 402.837Z" fill="#263238"/>
<path d="M470.384 398.168C476.577 393.78 480.705 386.77 485.241 380.769C485.33 380.626 485.385 380.463 485.401 380.294C485.418 380.125 485.395 379.954 485.336 379.796C485.276 379.637 485.181 379.495 485.058 379.382C484.936 379.268 484.789 379.187 484.63 379.143C484.641 379.108 484.643 379.071 484.638 379.035C484.632 378.999 484.618 378.966 484.596 378.937C484.575 378.908 484.547 378.884 484.515 378.869C484.483 378.854 484.448 378.847 484.412 378.848C476.571 379.038 468.915 381.349 462.209 385.55C458.352 388.074 454.55 393.471 457.877 398.168C461.014 402.472 466.772 400.664 470.384 398.168ZM463.309 398.168C454.102 396.766 461.693 388.536 464.667 386.798C466.572 385.726 468.546 384.789 470.574 383.994C474.799 382.369 479.1 380.965 483.462 379.788C481.058 382.592 478.912 385.592 476.604 388.494C473.806 391.803 468.388 398.869 463.309 398.168Z" fill="#263238"/>
<path d="M480.976 346.49C475.381 346.841 473.82 353.318 474.431 358.001C475.614 366.002 478.818 373.541 483.72 379.858C483.739 379.89 483.766 379.916 483.798 379.934C483.83 379.952 483.866 379.962 483.903 379.962C483.939 379.962 483.975 379.952 484.007 379.934C484.039 379.916 484.067 379.89 484.086 379.858C484.22 379.956 484.374 380.021 484.537 380.045C484.699 380.07 484.865 380.054 485.02 379.999C485.176 379.944 485.316 379.852 485.43 379.73C485.544 379.608 485.628 379.459 485.675 379.297C487.223 371.838 489.749 364.071 489.043 356.36C488.622 351.902 486.273 346.14 480.976 346.49ZM485.77 367.52C485.105 371.207 484.263 374.825 483.72 378.54C481.79 374.333 480.067 370.028 478.559 365.641C477.866 363.503 477.308 361.321 476.889 359.108C476.305 355.687 477.527 344.415 484.494 350.78C488.337 354.285 486.585 363.118 485.77 367.506V367.52Z" fill="#263238"/>
<path d="M490.564 343.868C507.064 351.243 524.786 359.501 541.027 367.436C546.921 370.591 552.801 373.633 558.41 377.32C559.148 377.758 559.799 378.339 560.324 379.031C560.584 379.653 560.741 380.317 560.786 380.993C560.881 386.728 558.26 391.761 555.829 396.682C550.9 406.019 543.689 415.483 533.938 419.632C535.171 419.155 536.336 418.509 537.401 417.712C544.893 412.159 550.916 404.755 554.92 396.177C557.133 391.256 560.161 385.718 559.415 380.208C559.211 379.213 558.478 379.017 557.717 378.4C546.052 371.025 531.467 364.211 519.041 358.099C511.939 354.622 497.626 347.458 490.523 343.868H490.564Z" fill="#263238"/>
<path d="M190.935 383.139C190.935 383.139 190.935 428.998 206.742 443.214C220.037 455.145 251.95 467.188 284.148 452.538C310.982 440.228 344.932 379.942 352.197 373.731C354.452 371.796 396.55 392.322 440.983 405.795L456.6 323.568C449.593 322.166 348.571 284.55 328.052 287.424C295.827 291.952 248.908 370.044 248.908 370.044L190.935 383.139Z" fill="#263238"/>
<path d="M231.783 376.212C231.783 375.974 231.403 376.044 231.403 376.212C231.419 382.534 229.307 388.664 225.428 393.555C221.028 398.925 214.564 401.967 208.657 405.066C208.086 405.374 208.562 405.809 209.146 405.626C212.737 404.629 216.208 403.218 219.494 401.42C222.519 399.705 225.176 397.372 227.302 394.565C229.218 391.98 230.603 389.02 231.373 385.865C232.144 382.71 232.283 379.425 231.783 376.212Z" fill="#37474F"/>
<path d="M424.85 396.934C428.15 382.353 427.39 386.587 430.54 371.979C432.075 364.814 439.897 328.881 440.264 321.969C440.264 321.932 440.249 321.896 440.224 321.87C440.198 321.844 440.164 321.829 440.128 321.829C440.092 321.829 440.057 321.844 440.032 321.87C440.006 321.896 439.992 321.932 439.992 321.969C437.588 328.433 430.486 364.534 429.128 371.712C426.235 386.391 427.213 382.213 424.47 396.948C424.459 396.981 424.456 397.015 424.461 397.049C424.466 397.082 424.479 397.114 424.499 397.142C424.519 397.169 424.545 397.191 424.574 397.206C424.604 397.221 424.637 397.228 424.67 397.227C424.703 397.225 424.735 397.216 424.764 397.199C424.793 397.182 424.817 397.158 424.835 397.129C424.852 397.101 424.863 397.068 424.866 397.034C424.868 397 424.863 396.966 424.85 396.934Z" fill="#37474F"/>
<path d="M249.546 369.792C245.594 375.498 242.389 381.442 238.329 387.064C240.692 380.573 244.236 374.166 249.546 369.792Z" fill="#37474F"/>
<path d="M197.385 386.405C198.282 393.022 199.327 399.598 200.563 406.145C201.686 412.699 203.298 419.153 205.384 425.451C206.489 428.543 208.301 431.313 210.667 433.526C223.826 445.864 247.577 451.921 264.62 446.256C288.032 437.031 309.434 403.075 323.408 381.961C326.979 376.353 330.442 370.745 334.041 365.221C334.951 363.819 335.874 362.417 336.866 361.113C337.599 360.132 338.726 358.561 340.193 358.87C343.831 359.543 347.39 360.61 350.812 362.052C362.926 366.749 374.795 372.021 386.786 377.012C398.777 382.003 410.686 387.218 423.18 390.681C410.632 387.457 398.573 382.465 386.514 377.699C371.454 371.866 356.747 364.618 341.252 360.244C340.611 360.07 339.937 360.07 339.296 360.244C338.737 360.739 338.24 361.304 337.816 361.926C333.077 368.642 328.948 375.82 324.467 382.746C310.439 404.224 288.942 438.125 265 447.476C247.591 453.266 223.432 446.873 210.11 434.171C205.085 429.573 203.537 422.563 202.098 416.099C199.993 406.285 198.58 396.401 197.385 386.461V386.405Z" fill="#37474F"/>
<path d="M442.925 395.56L441.133 405.837V405.991H440.97C425.679 401.603 410.605 396.373 395.776 390.569C383.866 386.012 366.171 377.951 354.099 374.53C353.619 374.407 353.125 374.359 352.632 374.39C352.632 374.306 352.51 374.488 352.51 374.488C349.712 377.656 347.165 381.051 344.891 384.639C328.976 407.814 313.114 432.545 290.286 449.131C309.434 434.381 323.353 413.912 337.069 394.018C340.41 389.195 345.611 380.993 349.101 376.423C349.879 375.363 350.737 374.369 351.668 373.451C351.803 373.306 351.971 373.2 352.157 373.142C352.884 372.975 353.64 372.999 354.357 373.212C357.282 373.953 360.158 374.89 362.966 376.016C370.544 378.82 388.456 386.405 396.197 389.517C410.591 395.672 426.792 400.916 440.861 405.907L442.952 395.7L442.925 395.56Z" fill="#37474F"/>
<path d="M127.978 499.841C119.015 475.853 100.981 462.351 79.0899 467.006C57.1989 471.661 51.2373 502.196 66.5419 511.393C81.8466 520.591 99.7722 499.252 108.64 495.312C117.508 491.373 127.978 499.841 127.978 499.841Z" fill="#28B446"/>
<path d="M133.437 562.09C133.614 559.286 133.736 556.482 133.872 553.678C134.13 548.07 134.415 542.56 134.659 536.994C135.135 526.815 134.89 516.763 131.59 507.061C128.685 498.283 123.268 490.623 116.055 485.092C113.359 483.083 110.407 481.47 107.282 480.297C104.648 477.025 101.146 474.617 97.2056 473.371C92.3343 471.9 87.251 471.321 82.1861 471.661C81.996 471.661 81.9824 471.969 82.1861 471.955C87.031 471.737 91.8693 472.519 96.418 474.254C98.3566 474.993 100.218 475.932 101.972 477.058C103.059 477.79 104.094 478.6 105.068 479.484C100.826 478.179 96.3605 477.835 91.9773 478.475C90.391 478.718 88.828 479.103 87.3058 479.624C86.1637 479.242 84.9749 479.03 83.775 478.993C82.2035 478.904 80.6273 478.998 79.0763 479.274C75.9007 479.895 72.8246 480.971 69.937 482.47C69.774 482.47 69.937 482.807 70.0728 482.723C72.8969 481.438 75.8821 480.569 78.9405 480.143C80.4199 479.923 81.9141 479.83 83.4083 479.862C84.2367 479.862 85.0651 479.989 85.8799 480.087C79.537 482.462 74.2153 487.082 70.8604 493.125C70.7654 493.28 71.0098 493.448 71.0913 493.28C74.9208 486.073 82.1861 481.559 89.9403 480.227C90.4156 480.143 90.9045 480.129 91.3934 480.073C91.2125 480.802 91.0765 481.541 90.986 482.288C90.7415 483.396 90.4699 484.503 90.1576 485.583C89.5227 487.83 88.7563 490.035 87.8626 492.186C86.9558 494.36 85.9077 496.467 84.7256 498.495C83.6049 500.652 82.2371 502.662 80.6516 504.482C80.5022 504.636 80.7331 504.846 80.8553 504.678C82.3219 502.701 83.9651 500.921 85.3231 498.86C86.6172 496.896 87.7657 494.833 88.7589 492.691C89.756 490.515 90.5825 488.26 91.2304 485.947C91.5699 484.727 91.8551 483.494 92.0995 482.246C92.3092 481.508 92.4189 480.744 92.4255 479.975C94.9754 479.806 97.5357 479.975 100.044 480.479C98.6858 485.891 97.1513 491.527 93.7699 496.042C93.6612 496.196 93.9057 496.364 94.0143 496.21C95.6175 493.799 97.0603 491.279 98.3328 488.667C99.5384 486.132 100.384 483.431 100.845 480.648C105.217 481.649 109.365 483.5 113.067 486.101C120.023 491.133 125.32 498.242 128.25 506.472C131.577 515.347 132.432 524.698 132.228 534.106C131.97 545.939 131.142 557.8 131.319 569.647C131.319 570.418 132.486 570.782 132.677 569.927C133.166 567.345 133.42 564.721 133.437 562.09Z" fill="#263238"/>
<path d="M114.656 483.129C114.014 482.174 113.251 481.311 112.388 480.564C111.567 479.72 110.706 478.92 109.808 478.166C108.036 476.67 106.035 475.49 103.887 474.675C103.87 474.669 103.852 474.666 103.834 474.667C103.816 474.667 103.798 474.672 103.782 474.68C103.749 474.695 103.723 474.724 103.71 474.759C103.698 474.795 103.699 474.834 103.715 474.868C103.73 474.902 103.758 474.929 103.792 474.942C105.959 475.725 107.947 476.961 109.631 478.573C110.473 479.33 111.288 480.157 112.076 480.984C112.757 481.873 113.532 482.681 114.384 483.396C114.42 483.423 114.464 483.437 114.509 483.434C114.554 483.431 114.596 483.412 114.629 483.38C114.661 483.349 114.682 483.306 114.687 483.26C114.692 483.214 114.681 483.168 114.656 483.129Z" fill="#263238"/>
<path d="M79.3207 488.443C77.3538 490.45 75.5037 492.575 73.7801 494.808C72.1004 497.067 70.6531 499.501 69.4617 502.07C69.4617 502.14 69.5432 502.196 69.5839 502.14C72.4781 497.339 75.8016 492.828 79.5109 488.667C79.6467 488.527 79.4565 488.316 79.3207 488.443Z" fill="#263238"/>
<path d="M102.868 488.219C102.524 489.637 101.994 491 101.293 492.27C100.598 493.507 99.8081 494.684 98.9303 495.789C98.9303 495.86 98.9303 495.958 99.0389 495.888C101.086 493.83 102.502 491.198 103.113 488.317C103.208 488.135 102.909 488.036 102.868 488.219Z" fill="#263238"/>
<path d="M126.484 500.233C126.484 500.233 140.417 479.077 170.619 483.844C199.341 488.359 216.261 540.779 188.273 549.388C160.285 557.996 161.629 508.169 150.629 500.598C142.495 495.032 131.631 497.205 126.484 500.233Z" fill="#28B446"/>
<path d="M195.688 511.225C193.627 509.629 191.468 508.172 189.224 506.865C187.094 505.618 184.809 504.674 182.434 504.061C178.797 499.152 174.082 495.207 168.677 492.551C168.976 492.551 169.261 492.453 169.56 492.425C171.129 492.233 172.706 492.125 174.286 492.102C177.466 492.063 180.627 492.618 183.615 493.742C183.648 493.745 183.68 493.736 183.707 493.717C183.734 493.699 183.755 493.671 183.766 493.639C183.776 493.608 183.777 493.573 183.767 493.541C183.757 493.509 183.737 493.481 183.71 493.462C180.679 492.389 177.54 491.674 174.354 491.331C172.804 491.184 171.245 491.184 169.696 491.331C168.854 491.401 168.025 491.527 167.21 491.668L166.735 491.752C163.909 490.543 160.956 489.677 157.935 489.172L158.75 488.864C160.18 488.426 161.63 488.066 163.096 487.784C166.024 487.198 169.015 487.01 171.991 487.223C172.167 487.223 172.194 486.943 171.991 486.943C168.986 486.798 165.975 486.906 162.987 487.265C160.474 487.531 157.994 488.062 155.586 488.849C153.782 488.65 151.967 488.575 150.154 488.625C139.765 488.976 128.779 493.855 122.994 503.136C117.209 512.417 116.869 524.25 116.516 534.947C115.863 549.867 116.572 564.818 118.635 579.601C118.771 580.47 119.993 580.218 119.911 579.377C119.382 566.759 118.893 554.141 119.137 541.523C119.259 535.662 119.436 529.774 119.938 523.942C120.259 518.93 121.288 513.994 122.994 509.291C124.855 504.47 128.059 500.328 132.201 497.388C136.364 494.482 141.1 492.567 146.066 491.78C150.519 491.057 155.059 491.142 159.483 492.032C159.388 492.94 159.43 493.857 159.606 494.752C159.781 495.886 160.082 496.997 160.502 498.061C160.905 499.06 161.391 500.022 161.955 500.935C162.58 501.944 163.313 502.827 164.033 503.739C164.141 503.893 164.372 503.739 164.25 503.556C162.91 501.851 161.98 499.843 161.534 497.696C161.273 496.678 161.078 495.643 160.95 494.598C160.855 493.813 160.855 493.013 160.774 492.228C165.592 493.359 170.161 495.413 174.245 498.285C175.019 498.818 175.752 499.393 176.486 499.995C175.575 501.01 174.807 502.152 174.204 503.388C173.29 504.999 172.521 506.693 171.909 508.449C170.79 511.97 170.133 515.629 169.954 519.329C169.954 519.511 170.225 519.539 170.225 519.329C170.546 515.735 171.465 512.226 172.941 508.954C173.613 507.342 174.38 505.774 175.236 504.257C175.684 503.486 176.16 502.715 176.594 501.972C176.852 501.566 177.137 501.159 177.382 500.724C181.134 503.978 184.289 507.9 186.698 512.305C185.397 513.938 184.348 515.768 183.588 517.731C182.668 519.789 181.887 521.911 181.252 524.082C180.121 528.279 179.246 532.544 178.631 536.854C178.641 536.885 178.66 536.913 178.685 536.932C178.711 536.952 178.742 536.962 178.774 536.962C178.806 536.962 178.837 536.952 178.862 536.932C178.888 536.913 178.907 536.885 178.916 536.854C179.507 532.523 180.616 528.285 182.216 524.236C182.963 522.245 183.764 520.282 184.62 518.334C185.523 516.515 186.321 514.642 187.01 512.726C189.325 517.04 190.828 521.769 191.437 526.661C191.437 526.844 191.75 526.788 191.722 526.661C190.611 519.005 187.784 511.722 183.466 505.393C185.34 506.052 187.214 506.683 189.034 507.51C191.355 508.556 193.541 509.898 195.538 511.506C195.661 511.59 195.837 511.338 195.688 511.225Z" fill="#263238"/>
<path d="M174.001 514.057C173.322 517.156 172.425 520.184 171.841 523.297C171.239 526.292 171.019 529.356 171.189 532.41C171.189 532.428 171.197 532.446 171.209 532.459C171.222 532.472 171.239 532.48 171.257 532.48C171.275 532.48 171.293 532.472 171.305 532.459C171.318 532.446 171.325 532.428 171.325 532.41C171.683 526.244 172.671 520.135 174.272 514.184C174.288 514.146 174.29 514.104 174.276 514.066C174.262 514.028 174.233 513.997 174.197 513.98C174.161 513.964 174.12 513.962 174.084 513.977C174.047 513.991 174.017 514.02 174.001 514.057Z" fill="#263238"/>
<path d="M192.252 505.085C191.028 504.013 189.655 503.139 188.178 502.491C186.66 501.918 185.097 501.481 183.506 501.187C183.33 501.187 183.289 501.453 183.506 501.467C185.069 501.764 186.586 502.278 188.015 502.996C189.474 503.636 190.885 504.386 192.238 505.239C192.251 505.231 192.261 505.22 192.268 505.207C192.276 505.194 192.28 505.18 192.282 505.165C192.283 505.15 192.281 505.135 192.276 505.121C192.271 505.107 192.263 505.095 192.252 505.085Z" fill="#263238"/>
<path d="M142.821 476.68C142.821 476.68 145.673 440.719 171.57 429.012C193.203 419.282 205.52 444.434 190.283 459.73C177.898 472.236 158.085 466.628 142.821 476.68Z" fill="#28B446"/>
<path d="M185.503 436.022C181.561 437.658 177.716 439.53 173.987 441.63C170.882 443.476 167.893 445.522 165.038 447.757C165.472 446.845 165.839 445.892 166.273 444.953C166.952 443.551 167.631 442.149 168.473 440.887C170.072 438.169 171.988 435.664 174.177 433.428C174.313 433.302 174.177 433.092 173.973 433.232C171.79 435.465 169.783 437.875 167.971 440.438C167.077 441.749 166.256 443.111 165.513 444.518C164.741 445.827 164.155 447.243 163.775 448.724L163.49 448.934C158.967 452.655 154.822 456.841 151.118 461.426C151.118 461.076 151.254 460.725 151.349 460.403C151.838 458.65 152.354 456.912 152.924 455.173C154.033 451.483 155.604 447.957 157.596 444.686C157.691 444.532 157.446 444.378 157.351 444.546C155.306 447.819 153.49 451.239 151.919 454.781C151.193 456.503 150.594 458.279 150.127 460.094C149.746 461.268 149.465 462.474 149.285 463.697C148.158 465.184 147.044 466.67 145.999 468.198C134.877 484.545 129.295 504.313 127.964 524.082C127.553 529.997 127.448 535.932 127.652 541.859C127.692 547.817 128.196 553.762 129.159 559.636C129.241 560.001 129.798 559.889 129.784 559.524C129.662 554.337 129.146 549.163 129.037 543.962C128.928 538.76 129.119 533.531 129.526 528.344C130.354 517.951 132.262 507.681 135.216 497.71C138.225 487.508 142.663 477.816 148.389 468.941C149.475 468.717 150.561 468.408 151.634 468.128C152.992 467.777 154.214 467.441 155.505 467.062C157.994 466.399 160.414 465.483 162.729 464.328C162.892 464.244 162.729 463.992 162.58 464.076C160.299 465.364 157.825 466.246 155.26 466.684C153.223 467.104 151.186 467.385 149.095 467.861C150.96 465.03 152.968 462.302 155.111 459.688C160.049 460.146 165.027 459.762 169.845 458.552C172.407 457.92 174.925 457.11 177.382 456.127C179.976 455.103 182.434 453.771 185 452.664C185.19 452.58 185 452.285 184.878 452.397C180.492 455.201 174.965 456.603 169.94 457.444C165.323 458.206 160.656 458.604 155.98 458.636C157.813 456.463 159.714 454.332 161.738 452.341C168.528 445.654 176.676 439.513 185.584 436.302C185.761 436.288 185.666 436.022 185.503 436.022Z" fill="#263238"/>
<path d="M164.427 436.176C163.26 437.696 162.198 439.298 161.249 440.971C160.279 442.742 159.513 444.624 158.967 446.579H159.076C159.932 444.813 160.665 442.99 161.534 441.223C162.392 439.495 163.43 437.868 164.63 436.372C164.752 436.232 164.535 436.022 164.427 436.176Z" fill="#263238"/>
<path d="M188.504 448.149C186.819 449.106 185.039 449.872 183.194 450.435C181.412 451.04 179.599 451.541 177.762 451.935C177.681 451.935 177.762 452.103 177.762 452.089C179.667 451.886 181.544 451.463 183.357 450.827C185.151 450.131 186.902 449.321 188.599 448.402C188.762 448.318 188.667 448.051 188.504 448.149Z" fill="#263238"/>
<path d="M122.831 459.253C122.668 460.809 118.906 446.201 97.029 433.218C77.1343 421.441 53.41 390.808 72.8973 371.446C88.623 355.828 130.083 389.882 122.831 459.253Z" fill="#28B446"/>
<path d="M137.891 543.009C137.577 527.802 136.426 512.627 134.442 497.556C132.706 483.713 129.602 470.089 125.18 456.898C123.551 452.145 121.69 447.476 119.748 442.878C119.86 441.084 119.828 439.283 119.653 437.494C119.545 435.195 119.341 432.896 119.137 430.61C118.934 428.325 118.703 426.012 118.445 423.727C118.187 421.441 117.711 419.156 117.616 416.871C117.616 416.834 117.602 416.798 117.577 416.772C117.551 416.745 117.517 416.731 117.481 416.731C117.444 416.731 117.41 416.745 117.384 416.772C117.359 416.798 117.345 416.834 117.345 416.871C117.779 419.273 118.038 421.705 118.119 424.147C118.295 426.376 118.418 428.591 118.485 430.807C118.553 433.022 118.485 435.265 118.485 437.494C118.485 438.293 118.485 439.149 118.485 440.004C116.421 435.508 114.203 431.101 111.831 426.783C113.311 417.404 111.383 407.604 109.523 398.448C109.523 398.252 109.224 398.336 109.251 398.533C110.163 403.318 110.65 408.18 110.704 413.057C110.786 416.899 110.609 420.754 110.595 424.596C110.066 423.684 109.55 422.759 109.007 421.792C106.164 416.997 103.131 412.324 99.908 407.772C100.166 405.549 100.098 403.299 99.7043 401.098C99.3458 398.627 98.8148 396.186 98.1154 393.794C97.4093 391.396 96.608 389.041 95.6846 386.784C94.7612 384.527 93.4711 382.157 92.5612 379.774C92.4797 379.578 92.1946 379.774 92.3032 379.9C93.4538 382.157 94.3644 384.535 95.0192 386.994C95.7447 389.294 96.3432 391.634 96.8118 394.004C97.2735 396.388 97.6537 398.771 97.9796 401.182C98.1833 402.767 98.3191 404.421 98.5907 406.019C93.9054 399.519 88.7821 393.368 83.2589 387.611C83.1231 387.471 82.9466 387.611 83.0552 387.821C91.4087 397.502 98.8651 407.969 105.326 419.086C105.571 419.507 105.788 419.927 106.033 420.348C104.824 419.563 103.439 418.946 102.298 418.287C100.18 417.062 98.0521 415.857 95.9155 414.67C93.8377 413.52 91.8415 412.342 89.7094 411.165C88.6502 410.562 87.6045 409.931 86.5181 409.356C85.2282 408.751 83.9884 408.038 82.8108 407.225C82.6478 407.099 82.4713 407.365 82.6478 407.463C84.7527 408.655 86.6132 410.436 88.6502 411.781C90.6872 413.127 92.7242 414.431 94.9106 415.651C98.7944 417.894 103.059 419.507 106.861 421.82C109.577 426.629 111.967 431.564 114.221 436.583C111.899 435.041 109.523 433.583 107.119 432.181C105.557 431.283 104.009 430.4 102.434 429.545C100.865 428.784 99.3849 427.844 98.0204 426.741C97.9934 426.715 97.9574 426.701 97.9205 426.702C97.8836 426.704 97.8487 426.72 97.8235 426.748C97.7983 426.776 97.7848 426.813 97.7861 426.851C97.7873 426.889 97.8032 426.925 97.8303 426.951C100.377 429.32 103.201 431.35 106.236 432.994C109.047 434.69 111.899 436.33 114.819 437.803C117.155 443.102 119.269 448.495 121.161 453.982C130.368 480.928 133.763 509.529 135.379 537.933C135.854 546.345 136.112 554.87 136.207 563.352C136.302 571.834 135.8 580.33 135.8 588.84C135.8 589.092 136.194 589.149 136.234 588.84C137.212 581.325 137.389 573.684 137.715 566.128C138.041 558.571 138.068 550.72 137.891 543.009Z" fill="#263238"/>
<path d="M98.1154 421.035C94.1131 419.22 90.226 417.145 86.4774 414.824C82.6737 412.619 78.9882 410.204 75.4368 407.589C75.4368 407.589 75.301 407.589 75.3554 407.688C78.7158 410.492 82.2595 413.055 85.9613 415.356C89.8456 417.59 93.8593 419.576 97.9796 421.301C98.1426 421.371 98.2784 421.119 98.1154 421.035Z" fill="#263238"/>
<path d="M104.457 390.583C104.131 389.265 103.738 387.976 103.303 386.7C103.322 386.679 103.333 386.651 103.333 386.623C103.333 386.594 103.322 386.566 103.303 386.546C103.031 385.816 102.733 385.144 102.448 384.372C102.42 384.282 102.388 384.193 102.352 384.106L102.189 383.699C102.189 383.699 102.094 383.699 102.108 383.699C102.189 383.952 102.244 384.204 102.325 384.457C102.407 384.709 102.325 384.723 102.448 384.863C103.892 389.915 104.976 395.07 105.693 400.285C105.693 400.453 105.951 400.453 105.951 400.285C105.756 397.009 105.256 393.76 104.457 390.583Z" fill="#263238"/>
<path d="M103.507 561.123L104.81 580.246L108.816 638.555H151.743L155.749 580.246L157.053 561.123H103.507Z" fill="#455A64"/>
<path d="M103.507 561.123L104.498 575.703L155.749 580.246L157.053 561.123H103.507Z" fill="#263238"/>
<path d="M99.2833 571.792H161.262V557.533H99.2833V571.792Z" fill="#455A64"/>
</svg>
