<svg xmlns="http://www.w3.org/2000/svg" version="1.1" xmlns:xlink="http://www.w3.org/1999/xlink" xmlns:svgjs="http://svgjs.dev/svgjs" width="2000" height="469" viewBox="0 0 2000 469"><g transform="matrix(1,0,0,1,-1.2121212121212466,-1.998224435883003)"><svg viewBox="0 0 396 93" data-background-color="#000000" preserveAspectRatio="xMidYMid meet" height="469" width="2000" xmlns="http://www.w3.org/2000/svg" xmlns:xlink="http://www.w3.org/1999/xlink"><g id="tight-bounds" transform="matrix(1,0,0,1,0.2400000000000091,0.3962364019981237)"><svg viewBox="0 0 395.52 92.20752719600374" height="92.20752719600374" width="395.52"><g><svg viewBox="0 0 547.2960362696709 127.59105518962564" height="92.20752719600374" width="395.52"><g transform="matrix(1,0,0,1,0,17.633785485686325)"><svg viewBox="0 0 395.52 92.32348421825299" height="92.32348421825299" width="395.52"><g id="textblocktransform"><svg viewBox="0 0 395.52 92.32348421825299" height="92.32348421825299" width="395.52" id="textblock"><g><svg viewBox="0 0 395.52 92.32348421825299" height="92.32348421825299" width="395.52"><g transform="matrix(1,0,0,1,0,0)"><svg width="395.52" viewBox="3.45 -35.8 204.33 47.699999999999996" height="92.32348421825299" data-palette-color="#ffffff"><path d="M40.15-23L44.4-23 44.4-4.75Q44.4-2.95 43.3-1.65L43.3-1.65Q41.9 0 39.9 0L39.9 0 11.3 0Q8.4 0 6.3-1.9L6.3-1.9Q3.45-4.35 3.45-8.25L3.45-8.25 3.45-17.65 5.6-19.4 7.7-19.4 7.7-8.25Q7.7-6.3 9.1-4.95L9.1-4.95Q10.45-3.55 12.5-3.55L12.5-3.55 38.25-3.55Q40.15-3.55 40.15-5.45L40.15-5.45 40.15-23ZM23.95 5.2L23.95 5.2Q24.95 5.2 25.68 5.93 26.4 6.65 26.4 7.65L26.4 7.65Q26.4 8.7 25.68 9.43 24.95 10.15 23.95 10.15L23.95 10.15Q22.9 10.15 22.18 9.43 21.45 8.7 21.45 7.65L21.45 7.65Q21.45 6.65 22.18 5.93 22.9 5.2 23.95 5.2ZM60.2-23L64.45-23 64.45-3.55 67-3.55 67 0 64.45 0Q64.3 6.25 60 9.35L60 9.35Q56.55 11.9 51.05 11.9L51.05 11.9Q50.2 11.9 48.9 11.85L48.9 11.85 47.25 9.8 47.25 8.2Q48.7 8.4 50.4 8.4L50.4 8.4Q60.2 8.4 60.2-0.6L60.2-0.6 60.2-23ZM74.09-13.65L73.59-14.85Q75.34-19.25 79.44-21.7L79.44-21.7Q82.75-23.6 86.3-23.6L86.3-23.6Q89.84-23.6 93.09-21.7L93.09-21.7Q97.25-19.25 98.94-14.85L98.94-14.85 98.5-13.65Q95.05-12.2 92.84-9.7L92.84-9.7Q90.59-7.1 90-3.55L90-3.55 99.44-3.55 99.44 0 89.3 0Q87.8 0 86.39-1.45L86.39-1.45 86.25-1.45Q84.89 0 83.34 0L83.34 0 66.64 0 66.64-3.55 82.59-3.55Q82.05-6.6 80.09-9.3L80.09-9.3Q77.84-12.1 74.09-13.65L74.09-13.65ZM94.34-15.35L94.34-15.35Q92.69-17.75 90.59-18.95L90.59-18.95Q88.59-20 86.3-20L86.3-20Q84-20 82.14-19.05L82.14-19.05Q79.94-17.95 78.25-15.35L78.25-15.35Q80.84-14.2 82.69-12.1L82.69-12.1Q85-9.5 86.19-5.6L86.19-5.6 86.34-5.6Q87.59-9.65 89.94-12.25L89.94-12.25Q91.84-14.25 94.34-15.35ZM108.09-35.8L112.34-35.8 112.34-4.75Q112.34-2.8 111.04-1.45L111.04-1.45Q109.69 0 107.79 0L107.79 0 99.09 0 99.09-3.55 106.19-3.55Q107.14-3.55 107.64-4.2L107.64-4.2Q108.09-4.75 108.09-5.45L108.09-5.45 108.09-35.8ZM119.24-35.8L123.49-35.8 123.49-0.5 121.34 1.25 119.24 1.25 119.24-35.8ZM151.39-34L151.39-34Q152.39-34 153.11-33.27 153.84-32.55 153.84-31.55L153.84-31.55Q153.84-30.5 153.11-29.78 152.39-29.05 151.39-29.05L151.39-29.05Q150.39-29.05 149.66-29.78 148.94-30.5 148.94-31.55L148.94-31.55Q148.94-32.55 149.66-33.27 150.39-34 151.39-34ZM157.44-34L157.44-34Q158.49-34 159.21-33.27 159.94-32.55 159.94-31.55L159.94-31.55Q159.94-30.5 159.21-29.78 158.49-29.05 157.44-29.05L157.44-29.05Q156.44-29.05 155.71-29.78 154.99-30.5 154.99-31.55L154.99-31.55Q154.99-32.55 155.71-33.27 156.44-34 157.44-34ZM157.84-24.35L159.94-24.35 159.94-5.45Q159.94-4.55 160.44-4.05L160.44-4.05Q160.89-3.55 161.44-3.55L161.44-3.55 162.44-3.55 162.44 0 160.34 0Q158.04 0 156.69-1.75L156.69-1.75Q153.44 0.55 149.69 0.55L149.69 0.55Q144.44 0.55 141.39-3.55L141.39-3.55Q138.89-6.9 138.89-11.55L138.89-11.55Q138.89-17 142.49-20.6L142.49-20.6Q145.69-23.85 150.34-23.85L150.34-23.85Q152.99-23.85 155.69-22.65L155.69-22.65 157.84-24.35ZM155.69-4.5L155.69-19.15Q153.49-20.25 151.24-20.25L151.24-20.25Q147.44-20.25 145.09-17.25L145.09-17.25Q143.14-14.8 143.14-11.45L143.14-11.45Q143.14-7.45 145.04-5.15L145.04-5.15Q146.89-3.05 150.04-3.05L150.04-3.05Q152.74-3.05 155.69-4.5L155.69-4.5ZM181.73-34L181.73-34Q182.73-34 183.46-33.27 184.18-32.55 184.18-31.55L184.18-31.55Q184.18-30.5 183.46-29.78 182.73-29.05 181.73-29.05L181.73-29.05Q180.68-29.05 179.96-29.78 179.23-30.5 179.23-31.55L179.23-31.55Q179.23-32.55 179.96-33.27 180.68-34 181.73-34ZM169.53-13.65L169.03-14.85Q170.78-19.25 174.88-21.7L174.88-21.7Q178.18-23.6 181.73-23.6L181.73-23.6Q185.28-23.6 188.53-21.7L188.53-21.7Q192.68-19.25 194.38-14.85L194.38-14.85 193.93-13.65Q190.48-12.2 188.28-9.7L188.28-9.7Q186.03-7.1 185.43-3.55L185.43-3.55 194.88-3.55 194.88 0 184.73 0Q183.23 0 181.83-1.45L181.83-1.45 181.68-1.45Q180.33 0 178.78 0L178.78 0 162.08 0 162.08-3.55 178.03-3.55Q177.48-6.6 175.53-9.3L175.53-9.3Q173.28-12.1 169.53-13.65L169.53-13.65ZM189.78-15.35L189.78-15.35Q188.13-17.75 186.03-18.95L186.03-18.95Q184.03-20 181.73-20L181.73-20Q179.43-20 177.58-19.05L177.58-19.05Q175.38-17.95 173.68-15.35L173.68-15.35Q176.28-14.2 178.13-12.1L178.13-12.1Q180.43-9.5 181.63-5.6L181.63-5.6 181.78-5.6Q183.03-9.65 185.38-12.25L185.38-12.25Q187.28-14.25 189.78-15.35ZM203.53-35.8L207.78-35.8 207.78-4.75Q207.78-2.8 206.48-1.45L206.48-1.45Q205.13 0 203.23 0L203.23 0 194.53 0 194.53-3.55 201.63-3.55Q202.58-3.55 203.08-4.2L203.08-4.2Q203.53-4.75 203.53-5.45L203.53-5.45 203.53-35.8Z" opacity="1" transform="matrix(1,0,0,1,0,0)" fill="#ffffff" class="wordmark-text-0" data-fill-palette-color="primary" id="text-0"></path></svg></g></svg></g></svg></g></svg></g><g transform="matrix(1,0,0,1,417.31535886030827,0)"><svg viewBox="0 0 129.98067740936267 127.59105518962564" height="127.59105518962564" width="129.98067740936267"><g><svg xmlns="http://www.w3.org/2000/svg" xmlns:xlink="http://www.w3.org/1999/xlink" version="1.1" x="0" y="0" viewBox="4.5127557955487925 8.055719398564195 80.50328863899814 79.0232806014358" enable-background="new 0 0 90 90" xml:space="preserve" height="127.59105518962564" width="129.98067740936267" class="icon-icon-0" data-fill-palette-color="accent" id="icon-0"><path fill-rule="evenodd" clip-rule="evenodd" d="M82.988 15.105C81.642 14.603 79.598 14.482 78.203 14.182 77.358 13.999 76.182 13.544 76.055 13.291 75.912 13.007 78.937 12.306 79.292 12.243 80.021 12.113 81.801 11.822 84.791 12.128 84.975 12.147 85.128 11.972 84.906 11.794 84.47 11.441 84.012 11.107 83.603 10.939 79.825 9.387 78.386 9.585 77.871 9.594 77.28 9.604 76.444 9.839 75.902 9.672 75.347 9.5 74.77 9.089 73.369 8.537 71.558 7.825 70.058 8.092 69.363 8.168 67.699 8.349 66.385 8.662 64.876 9.389 64.101 9.763 63.45 10.39 62.812 10.957 62.107 11.581 61.252 12.865 60.766 13.689A35 35 0 0 0 58.911 17.345C58.409 18.484 57.872 19.61 57.44 20.778S56.473 23.094 55.925 24.213C55.539 25 54.828 25.88 54.218 26.507 52.889 27.875 51.924 30.163 50.685 31.681 49.968 32.559 48.496 33.58 47.558 34.28 46.418 35.131 45.341 36.064 44.196 36.906 43.431 37.469 42.702 38.103 41.897 38.607A47 47 0 0 1 38.885 40.32C37.477 41.063 36.184 42.025 34.809 42.828 33.346 43.684 31.882 44.596 30.499 45.578 29.563 46.244 28.405 47.117 27.607 47.936 26.182 49.398 25.196 50.315 23.306 51.161 21.811 51.83 20.509 52.912 19.058 53.673 17.965 54.245 16.994 55.038 16.01 55.776 15.468 56.18 14.976 56.672 14.502 57.153 14.348 57.309 14.194 57.466 14.047 57.63 13.993 57.689 13.922 57.758 13.882 57.828 14.142 57.733 14.396 57.562 14.636 57.43 15.253 57.09 16.291 56.615 16.91 56.28 18.281 55.54 22.506 53.957 22.888 53.809 23.54 53.606 23.613 53.89 23.531 54.134 23.355 54.665 13.036 60.497 12.346 60.866 10.282 61.97 8.384 63.396 6.372 64.593 6.049 64.786 5.006 65.561 4.82 65.85A1 1 0 0 0 4.653 66.258L4.628 66.269C4.401 66.363 4.542 66.703 4.769 66.609 5.249 66.41 5.739 66.199 6.233 65.981 6.62 65.979 6.211 66.415 6.985 66.331 7.598 66.265 8.39 65.921 9.025 65.778 9.881 65.585 10.774 65.571 11.629 65.387 12.134 65.277 12.578 64.991 13.02 64.738A419 419 0 0 0 17.695 62.002C18.832 61.331 20.002 60.707 21.155 60.065 22.126 60.155 23.1 60.259 24.072 60.316 24.992 60.37 27.272 60.383 28.126 60.246 30.014 59.941 31.871 59.433 33.71 58.92 34.557 58.684 37.219 58.478 38.063 58.671 38.501 58.771 40.067 59.799 40.655 60.07 41.349 60.39 42.888 60.42 43.68 60.406 44.212 60.396 45.51 60.612 45.995 60.817 46.428 61 46.99 61.65 47.246 62.047 47.488 62.422 47.492 63.061 47.443 63.488 47.335 64.474 47.442 65.488 47.323 66.467 47.22 67.311 46.94 68.148 46.891 68.998 46.865 69.505 46.996 69.986 47.004 70.484 47.009 70.792 47.856 71.777 47.983 72.171 48.202 72.851 48.52 73.516 48.687 74.209 48.804 74.701 48.937 75.189 49.052 75.684 49.292 76.712 49.443 78.014 49.568 79.077 49.676 79.989 49.718 80.917 49.774 81.832 49.793 82.142 49.789 82.468 49.821 82.774 49.823 82.798 49.856 82.842 49.871 82.858L49.809 82.93C49.842 83.13 49.228 83.517 49.08 83.667 48.769 83.982 48.018 83.874 47.602 83.882 47.237 83.888 46.822 83.883 46.46 83.807 45.919 83.695 45.396 83.542 44.834 83.553 44.283 83.562 43.827 83.844 43.471 84.248 43.288 84.455 42.944 85.13 42.915 85.402 42.894 85.606 42.956 85.75 43.158 85.822A1.5 1.5 0 0 0 43.396 85.394C43.739 84.55 45.182 83.873 45.944 84.535 45.91 84.752 45.829 85.359 45.914 85.539 46.005 85.729 46.395 85.876 46.591 85.905 46.859 85.945 47.27 85.677 47.537 85.604 47.843 85.522 48.089 85.541 48.304 85.78 48.48 85.976 49.045 85.928 49.306 85.964 49.856 86.035 50.776 86.083 51.263 86.26 51.708 86.421 52.233 86.454 52.701 86.519 53.019 86.562 53.813 86.791 54.034 86.79 54.179 86.789 54.361 86.796 54.419 86.63 54.432 86.59 54.408 86.564 54.415 86.523 54.437 86.381 54.586 86.136 54.739 86.106 55.091 86.034 55.301 86.754 55.33 87.003A2.5 2.5 0 0 0 55.788 86.323C56.143 86.337 56.532 86.363 56.882 86.304 57.171 86.254 57.443 86.204 57.738 86.242 58.176 86.298 58.638 86.367 59.081 86.36 59.308 86.356 59.515 86.065 59.589 85.879 59.696 85.615 59.652 85.386 60.016 85.389 60.308 85.39 60.912 85.506 61.161 85.653 61.436 85.813 61.671 86.213 61.799 86.503 61.883 86.693 61.912 86.875 61.857 87.079 62.388 86.996 62.05 85.908 61.878 85.641 61.65 85.287 60.876 84.862 60.475 84.756 59.795 84.578 58.603 84.789 57.868 84.802L56.34 84.829C55.927 84.836 53.999 84.535 53.617 84.356 53.292 84.204 52.884 83.975 52.606 83.749 52.38 83.562 52.209 83.033 52.109 82.754 52.07 82.65 51.942 82.495 51.88 82.399 51.674 82.076 51.356 81.579 51.27 81.211 51.034 80.209 50.965 79.146 50.793 78.129 50.607 77.04 50.53 75.933 50.345 74.847 50.282 74.475 50.215 74.092 50.208 73.71 50.203 73.391 50.429 72.788 50.532 72.475 50.772 71.744 50.731 70.918 51.011 70.203 51.183 69.761 51.112 68.114 51.136 67.525 51.164 66.893 51.052 65.692 51.138 65.174 51.208 64.76 52.838 61.411 53.419 60.856 54.661 59.669 54.919 60.046 55.103 59.993L54.993 62.349C54.977 62.711 54.943 63.084 54.949 63.447 54.956 63.856 54.41 65.162 54.341 65.723 54.296 66.088 54.37 66.977 54.456 67.338 54.551 67.735 55.089 68.914 55.33 69.242 55.65 69.682 56.156 69.972 56.473 70.408 57.079 71.244 57.815 71.984 58.487 72.763 58.847 73.178 59.179 73.631 59.533 74.055 59.99 74.6 60.493 75.139 60.909 75.715 61.265 76.207 61.552 77.009 61.971 77.404 62.181 77.601 62.448 78.145 62.512 78.427 62.641 78.995 62.476 79.703 62.173 80.193 62.039 80.41 61.748 80.495 61.516 80.562 61.336 80.613 60.924 80.67 60.74 80.625 60.522 80.572 60.268 80.424 60.059 80.331 59.312 80 58.937 79.969 58.317 80.566 57.914 80.952 58.172 81.784 58.181 82.276 58.347 81.984 58.801 80.912 59.191 80.97 59.366 80.996 59.541 81.032 59.715 81.063L59.989 82.142C61.103 82.912 60.927 82.376 61.545 82.166 61.845 82.062 62.166 82.071 62.472 81.996 62.754 81.928 63.075 81.668 63.345 81.663 64.36 81.645 64.579 82.847 65.068 83.086 65.289 83.195 65.994 83.272 66.215 83.168 66.304 83.126 66.492 83.03 66.518 82.907L67.089 83.459C67.267 83.321 67.478 83.193 67.707 83.193 68.243 83.192 68.828 83.142 69.356 83.199 69.729 83.24 70.121 83.39 70.494 83.384 71.186 83.372 70.722 82.642 71.206 82.543 71.403 82.503 71.717 83.104 71.792 83.259L72.205 83.508C72.006 83.101 71.821 82.687 71.621 82.28 71.469 81.966 71.118 81.817 70.784 81.784 70.424 81.748 70.106 81.898 69.754 81.904 69.386 81.91 66.674 80.876 66.375 80.628 66.014 80.329 65.363 79.052 65.04 78.586 64.805 78.248 64.467 77.943 64.205 77.618 63.737 77.04 63.287 76.443 62.83 75.856 62.57 75.523 62.281 75.194 62.043 74.847 61.569 74.159 61.195 73.401 60.698 72.726 60.138 71.97 59.641 71.171 59.103 70.403 58.971 70.214 58.646 69.693 58.677 69.461 58.748 68.914 58.941 68.196 59.098 67.662 59.229 67.218 59.121 66.56 59.113 66.088 59.1 65.407 59.07 64.693 59.165 64.018 59.241 63.459 59.631 61.997 59.897 61.525 60.2 60.988 60.977 60.021 61.438 59.621 62.129 59.023 62.947 58.643 63.588 57.966 64.463 57.041 65.021 55.741 65.666 54.652 66.461 53.308 67.196 51.93 68.01 50.598 68.805 49.297 69.532 47.937 70.249 46.589 70.988 45.195 71.337 43.377 71.913 41.881 72.251 41.005 72.434 40.055 72.671 39.147 72.772 38.757 72.866 38.348 73.031 37.979 73.407 37.14 73.615 36.091 73.759 35.184 73.869 34.488 73.158 32.657 73.01 31.832 72.888 31.145 72.817 30.451 72.672 29.769 72.469 28.809 72.232 25.441 72.431 24.509 72.547 23.964 72.827 22.608 73.058 22.169 73.346 21.62 73.807 21.12 74.173 20.619 74.811 19.748 76.871 17.924 77.827 17.427 78.323 17.168 79.206 16.662 79.731 16.553 80.432 16.407 81.429 16.36 82.159 16.332 82.853 16.306 83.65 16.355 84.345 16.343 84.647 16.338 84.907 16.114 84.664 15.842 84.512 15.67 83.304 15.223 82.988 15.105" fill="#ffffff" data-fill-palette-color="accent"></path></svg></g></svg></g></svg></g><defs></defs></svg><rect width="395.52" height="92.20752719600374" fill="none" stroke="none" visibility="hidden"></rect></g></svg></g></svg>