<svg width="2000" height="469" viewBox="0 0 2000 469" fill="none" xmlns="http://www.w3.org/2000/svg">
<g clip-path="url(#clip0_12_2)">
<g clip-path="url(#clip1_12_2)">
<g clip-path="url(#clip2_12_2)">
<g clip-path="url(#clip3_12_2)">
<g clip-path="url(#clip4_12_2)">
<g clip-path="url(#clip5_12_2)">
<g clip-path="url(#clip6_12_2)">
<path d="M260.431 154.556H290.41V283.29C290.41 291.755 287.824 299.044 282.651 305.157C276.067 312.916 268.073 316.796 258.668 316.796H56.9258C43.2882 316.796 31.5317 312.328 21.6563 303.393C8.25383 291.872 1.55261 276.941 1.55261 258.601V192.294L16.7185 179.95H31.5317V258.601C31.5317 267.771 34.8236 275.531 41.4072 281.879C47.7557 288.463 55.7502 291.755 65.3905 291.755H247.029C255.964 291.755 260.431 287.287 260.431 278.352V154.556ZM146.158 353.476C150.86 353.476 154.928 355.193 158.361 358.626C161.747 362.011 163.44 366.056 163.44 370.758C163.44 375.696 161.747 379.881 158.361 383.314C154.928 386.7 150.86 388.393 146.158 388.393C141.22 388.393 137.058 386.7 133.672 383.314C130.239 379.881 128.523 375.696 128.523 370.758C128.523 366.056 130.239 362.011 133.672 358.626C137.058 355.193 141.22 353.476 146.158 353.476ZM401.862 154.556H431.841V291.755H449.829V316.796H431.841C431.136 346.187 420.672 368.172 400.451 382.75C384.227 394.742 363.183 400.737 337.319 400.737C333.321 400.737 328.266 400.62 322.153 400.385L310.514 385.924V374.638C317.333 375.579 324.739 376.049 332.734 376.049C378.819 376.049 401.862 354.887 401.862 312.564V154.556ZM499.841 220.51L496.314 212.045C504.543 191.354 518.299 175.247 537.579 163.726C553.145 154.791 569.275 150.324 585.969 150.324C602.616 150.324 618.582 154.791 633.865 163.726C653.428 175.247 667.183 191.354 675.13 212.045L672.027 220.51C655.803 227.329 642.494 236.616 632.102 248.373C621.521 260.6 614.843 275.06 612.068 291.755H678.657V316.796H607.131C600.077 316.796 593.235 313.387 586.604 306.568H585.616C579.221 313.387 572.378 316.796 565.089 316.796H447.289V291.755H559.799C557.26 277.412 551.381 263.892 542.164 251.195C531.583 238.027 517.476 227.799 499.841 220.51ZM642.682 208.518C634.923 197.232 626.106 188.767 616.23 183.124C606.825 178.187 596.738 175.718 585.969 175.718C575.153 175.718 565.372 177.951 556.625 182.419C546.279 187.592 537.132 196.292 529.185 208.518C541.365 213.926 551.805 221.568 560.504 231.444C571.367 243.67 579.597 258.954 585.193 277.294H586.251C592.129 258.248 600.594 242.612 611.645 230.386C620.58 220.98 630.926 213.691 642.682 208.518ZM739.674 64.266H769.653V283.29C769.653 292.46 766.596 300.219 760.483 306.568C754.134 313.387 746.492 316.796 737.558 316.796H676.188V291.755H726.271C730.739 291.755 734.148 290.226 736.499 287.169C738.616 284.583 739.674 281.644 739.674 278.352V64.266ZM818.325 64.266H848.304V313.269L833.138 325.613H818.325V64.266ZM1045.11 76.963C1049.81 76.963 1053.85 78.6795 1057.24 82.1124C1060.67 85.4982 1062.39 89.5425 1062.39 94.2451C1062.39 99.1828 1060.67 103.345 1057.24 106.731C1053.85 110.163 1049.81 111.88 1045.11 111.88C1040.41 111.88 1036.34 110.163 1032.9 106.731C1029.52 103.345 1027.83 99.1828 1027.83 94.2451C1027.83 89.5425 1029.52 85.4982 1032.9 82.1124C1036.34 78.6795 1040.41 76.963 1045.11 76.963ZM1087.78 76.963C1092.72 76.963 1096.88 78.6795 1100.27 82.1124C1103.7 85.4982 1105.42 89.5425 1105.42 94.2451C1105.42 99.1828 1103.7 103.345 1100.27 106.731C1096.88 110.163 1092.72 111.88 1087.78 111.88C1083.08 111.88 1079.01 110.163 1075.58 106.731C1072.2 103.345 1070.5 99.1828 1070.5 94.2451C1070.5 89.5425 1072.2 85.4982 1075.58 82.1124C1079.01 78.6795 1083.08 76.963 1087.78 76.963ZM1090.61 145.033H1105.42V278.352C1105.42 282.584 1106.59 285.876 1108.95 288.228C1111.06 290.579 1113.41 291.755 1116 291.755H1123.05V316.796H1108.24C1097.42 316.796 1088.84 312.681 1082.49 304.452C1067.21 315.268 1050.75 320.676 1033.12 320.676C1008.43 320.676 988.912 311.035 974.569 291.755C962.812 276.001 956.934 257.19 956.934 235.323C956.934 209.694 965.399 188.415 982.328 171.485C997.377 156.202 1015.83 148.56 1037.7 148.56C1050.16 148.56 1062.74 151.382 1075.44 157.025L1090.61 145.033ZM1075.44 285.053V181.714C1065.09 176.541 1054.63 173.954 1044.05 173.954C1026.18 173.954 1011.72 181.008 1000.67 195.116C991.498 206.637 986.913 220.275 986.913 236.029C986.913 254.839 991.381 269.652 1000.32 280.468C1009.02 290.344 1020.77 295.282 1035.59 295.282C1048.28 295.282 1061.57 291.872 1075.44 285.053ZM1259.12 76.963C1263.83 76.963 1267.89 78.6795 1271.33 82.1124C1274.71 85.4982 1276.41 89.5425 1276.41 94.2451C1276.41 99.1828 1274.71 103.345 1271.33 106.731C1267.89 110.163 1263.83 111.88 1259.12 111.88C1254.19 111.88 1250.02 110.163 1246.64 106.731C1243.21 103.345 1241.49 99.1828 1241.49 94.2451C1241.49 89.5425 1243.21 85.4982 1246.64 82.1124C1250.02 78.6795 1254.19 76.963 1259.12 76.963ZM1173.07 220.51L1169.54 212.045C1177.77 191.354 1191.52 175.247 1210.8 163.726C1226.32 154.791 1242.43 150.324 1259.12 150.324C1275.82 150.324 1291.81 154.791 1307.09 163.726C1326.61 175.247 1340.36 191.354 1348.36 212.045L1345.18 220.51C1328.96 227.329 1315.67 236.616 1305.33 248.373C1294.75 260.6 1288.04 275.06 1285.22 291.755H1351.88V316.796H1280.29C1273.23 316.796 1266.41 313.387 1259.83 306.568H1258.77C1252.42 313.387 1245.6 316.796 1238.31 316.796H1120.51V291.755H1233.02C1230.44 277.412 1224.56 263.892 1215.39 251.195C1204.81 238.027 1190.7 227.799 1173.07 220.51ZM1315.91 208.518C1308.15 197.232 1299.33 188.767 1289.46 183.124C1280.05 178.187 1269.94 175.718 1259.12 175.718C1248.31 175.718 1238.55 177.951 1229.85 182.419C1219.5 187.592 1210.33 196.292 1202.34 208.518C1214.57 213.926 1225.03 221.568 1233.73 231.444C1244.55 243.67 1252.78 258.954 1258.42 277.294H1259.48C1265.35 258.248 1273.82 242.612 1284.87 230.386C1293.81 220.98 1304.15 213.691 1315.91 208.518ZM1412.9 64.266H1442.88V283.29C1442.88 292.46 1439.82 300.219 1433.71 306.568C1427.36 313.387 1419.72 316.796 1410.78 316.796H1349.41V291.755H1399.5C1403.96 291.755 1407.37 290.226 1409.72 287.169C1411.84 284.583 1412.9 281.644 1412.9 278.352V64.266Z" fill="#9D966D"/>
</g>
</g>
</g>
</g>
<g clip-path="url(#clip7_12_2)">
<g clip-path="url(#clip8_12_2)">
<path fill-rule="evenodd" clip-rule="evenodd" d="M1984.16 41.4807C1976.24 38.5267 1964.21 37.8147 1956 36.0494C1951.03 34.9726 1944.11 32.2952 1943.36 30.8064C1942.52 29.1353 1960.32 25.0103 1962.41 24.6396C1966.7 23.8746 1977.18 22.1623 1994.77 23.9629C1995.85 24.0747 1996.75 23.0449 1995.45 21.9975C1992.88 19.9203 1990.19 17.9549 1987.78 16.9663C1965.55 7.83377 1957.08 8.99888 1954.05 9.05184C1950.57 9.11068 1945.65 10.4935 1942.46 9.51082C1939.2 8.49871 1935.8 6.08022 1927.56 2.83204C1916.9 -1.35764 1908.07 0.21349 1903.99 0.660704C1894.19 1.72578 1886.46 3.56759 1877.58 7.84554C1873.02 10.0463 1869.19 13.7358 1865.44 17.0723C1861.29 20.7441 1856.26 28.2997 1853.4 33.1484C1849.34 40.1001 1845.7 47.2835 1842.48 54.6617C1839.53 61.364 1836.37 67.9899 1833.83 74.8628C1831.28 81.7358 1828.14 88.4911 1824.91 95.0757C1822.64 99.7067 1818.46 104.885 1814.87 108.574C1807.05 116.624 1801.37 130.088 1794.08 139.02C1789.86 144.187 1781.2 150.195 1775.68 154.314C1768.97 159.321 1762.63 164.812 1755.89 169.766C1751.39 173.079 1747.1 176.81 1742.36 179.776C1736.58 183.352 1730.67 186.714 1724.64 189.855C1716.36 194.228 1708.75 199.888 1700.66 204.614C1692.05 209.651 1683.43 215.017 1675.29 220.796C1669.79 224.715 1662.97 229.852 1658.28 234.671C1649.89 243.274 1644.09 248.67 1632.97 253.648C1624.17 257.585 1616.51 263.952 1607.97 268.43C1601.54 271.796 1595.83 276.462 1590.04 280.805C1586.85 283.182 1583.95 286.077 1581.16 288.907C1580.26 289.825 1579.35 290.749 1578.48 291.714C1578.17 292.061 1577.75 292.467 1577.51 292.879C1579.04 292.32 1580.54 291.314 1581.95 290.537C1585.58 288.537 1591.69 285.742 1595.33 283.77C1603.4 279.416 1628.26 270.101 1630.51 269.23C1634.34 268.035 1634.77 269.707 1634.29 271.142C1633.26 274.267 1572.54 308.585 1568.48 310.756C1556.33 317.252 1545.16 325.644 1533.32 332.687C1531.42 333.823 1525.28 338.383 1524.19 340.084C1523.69 340.801 1523.35 341.621 1523.21 342.485L1523.06 342.549C1521.72 343.103 1522.55 345.103 1523.89 344.55C1526.71 343.379 1529.6 342.138 1532.5 340.855C1534.78 340.843 1532.37 343.409 1536.93 342.914C1540.54 342.526 1545.2 340.502 1548.93 339.66C1553.97 338.525 1559.22 338.442 1564.26 337.359C1567.23 336.712 1569.84 335.029 1572.44 333.54C1581.65 328.233 1590.82 322.867 1599.95 317.441C1606.64 313.492 1613.53 309.82 1620.31 306.043C1626.02 306.572 1631.76 307.184 1637.48 307.52C1642.89 307.837 1656.31 307.914 1661.33 307.108C1672.44 305.313 1683.37 302.324 1694.19 299.305C1699.17 297.916 1714.84 296.704 1719.8 297.84C1722.38 298.428 1731.6 304.477 1735.06 306.072C1739.14 307.955 1748.2 308.132 1752.86 308.049C1755.99 307.99 1763.62 309.261 1766.48 310.468C1769.03 311.545 1772.33 315.369 1773.84 317.706C1775.26 319.912 1775.29 323.672 1775 326.185C1774.36 331.987 1774.99 337.954 1774.29 343.715C1773.69 348.681 1772.04 353.606 1771.75 358.608C1771.6 361.591 1772.37 364.422 1772.42 367.352C1772.45 369.165 1777.43 374.961 1778.18 377.279C1779.47 381.28 1781.34 385.194 1782.32 389.271C1783.01 392.167 1783.79 395.038 1784.47 397.951C1785.88 404 1786.77 411.662 1787.5 417.917C1788.14 423.283 1788.39 428.744 1788.72 434.128C1788.83 435.952 1788.8 437.871 1788.99 439.671C1789 439.812 1789.2 440.071 1789.29 440.166L1788.92 440.589C1789.12 441.766 1785.5 444.043 1784.63 444.926C1782.8 446.78 1778.38 446.144 1775.93 446.191C1773.79 446.226 1771.35 446.197 1769.21 445.75C1766.03 445.091 1762.95 444.19 1759.65 444.255C1756.4 444.308 1753.72 445.968 1751.63 448.345C1750.55 449.563 1748.53 453.535 1748.35 455.135C1748.23 456.336 1748.6 457.183 1749.78 457.607C1750.39 456.85 1750.86 455.999 1751.19 455.088C1753.2 450.122 1761.69 446.138 1766.18 450.034C1765.98 451.311 1765.5 454.882 1766 455.942C1766.54 457.06 1768.83 457.925 1769.99 458.095C1771.56 458.331 1773.98 456.754 1775.55 456.324C1777.35 455.842 1778.8 455.953 1780.07 457.36C1781.1 458.513 1784.43 458.231 1785.96 458.442C1789.2 458.86 1794.61 459.143 1797.48 460.184C1800.1 461.132 1803.19 461.326 1805.94 461.708C1807.81 461.961 1812.48 463.309 1813.78 463.303C1814.64 463.297 1815.71 463.338 1816.05 462.361C1816.13 462.126 1815.98 461.973 1816.03 461.732C1816.15 460.896 1817.03 459.455 1817.93 459.278C1820 458.854 1821.24 463.091 1821.41 464.556C1822.52 463.38 1823.43 462.028 1824.1 460.555C1826.19 460.637 1828.48 460.79 1830.54 460.443C1832.24 460.149 1833.84 459.855 1835.58 460.078C1838.16 460.408 1840.88 460.814 1843.48 460.773C1844.82 460.749 1846.04 459.037 1846.47 457.942C1847.1 456.389 1846.84 455.041 1848.98 455.059C1850.7 455.065 1854.26 455.747 1855.72 456.612C1857.34 457.554 1858.72 459.908 1859.48 461.614C1859.97 462.732 1860.14 463.803 1859.82 465.004C1862.94 464.515 1860.95 458.113 1859.94 456.542C1858.6 454.459 1854.04 451.958 1851.68 451.334C1847.68 450.287 1840.67 451.528 1836.34 451.605L1827.35 451.764C1824.92 451.805 1813.58 450.034 1811.33 448.98C1809.42 448.086 1807.02 446.738 1805.38 445.409C1804.05 444.308 1803.04 441.195 1802.46 439.554C1802.23 438.942 1801.47 438.03 1801.11 437.465C1799.9 435.564 1798.02 432.639 1797.52 430.474C1796.13 424.578 1795.72 418.323 1794.71 412.338C1793.62 405.93 1793.16 399.416 1792.08 393.026C1791.71 390.837 1791.31 388.583 1791.27 386.335C1791.24 384.458 1792.57 380.91 1793.18 379.068C1794.59 374.766 1794.35 369.906 1795.99 365.699C1797.01 363.098 1796.59 353.406 1796.73 349.94C1796.9 346.221 1796.24 339.154 1796.74 336.106C1797.15 333.67 1806.75 313.963 1810.16 310.697C1817.47 303.712 1818.99 305.931 1820.07 305.619L1819.43 319.483C1819.33 321.613 1819.13 323.808 1819.17 325.944C1819.21 328.35 1816 336.035 1815.59 339.337C1815.33 341.484 1815.76 346.716 1816.27 348.84C1816.83 351.176 1819.99 358.114 1821.41 360.044C1823.29 362.633 1826.27 364.339 1828.14 366.905C1831.7 371.824 1836.03 376.179 1839.99 380.763C1842.1 383.205 1844.06 385.87 1846.14 388.365C1848.83 391.572 1851.79 394.744 1854.24 398.133C1856.33 401.028 1858.02 405.748 1860.49 408.072C1861.72 409.231 1863.29 412.432 1863.67 414.092C1864.43 417.434 1863.46 421.6 1861.68 424.484C1860.89 425.761 1859.18 426.261 1857.81 426.655C1856.75 426.955 1854.33 427.291 1853.24 427.026C1851.96 426.714 1850.47 425.843 1849.24 425.296C1844.84 423.348 1842.63 423.166 1838.99 426.679C1836.61 428.95 1838.13 433.846 1838.19 436.741C1839.16 435.023 1841.83 428.715 1844.13 429.056C1845.16 429.209 1846.19 429.421 1847.21 429.603L1848.82 435.952C1855.38 440.483 1854.34 437.329 1857.98 436.094C1859.75 435.482 1861.64 435.535 1863.44 435.093C1865.1 434.693 1866.98 433.163 1868.57 433.134C1874.55 433.028 1875.83 440.101 1878.71 441.507C1880.01 442.149 1884.16 442.602 1885.46 441.99C1885.98 441.743 1887.09 441.178 1887.24 440.454L1890.6 443.702C1891.65 442.89 1892.89 442.137 1894.24 442.137C1897.39 442.131 1900.84 441.837 1903.94 442.172C1906.14 442.413 1908.45 443.296 1910.64 443.261C1914.71 443.19 1911.98 438.895 1914.83 438.312C1915.99 438.077 1917.84 441.613 1918.28 442.525L1920.71 443.99C1919.54 441.595 1918.45 439.159 1917.27 436.764C1916.38 434.917 1914.31 434.04 1912.35 433.846C1910.23 433.634 1908.36 434.517 1906.29 434.552C1904.12 434.587 1888.16 428.503 1886.4 427.043C1884.28 425.284 1880.45 417.77 1878.55 415.027C1877.16 413.039 1875.18 411.244 1873.63 409.331C1870.88 405.93 1868.23 402.417 1865.54 398.963C1864.01 397.004 1862.31 395.068 1860.91 393.026C1858.12 388.977 1855.92 384.517 1853 380.545C1849.7 376.096 1846.78 371.395 1843.61 366.875C1842.83 365.763 1840.92 362.698 1841.1 361.332C1841.52 358.114 1842.66 353.889 1843.58 350.746C1844.35 348.134 1843.72 344.262 1843.67 341.484C1843.59 337.477 1843.42 333.276 1843.98 329.304C1844.42 326.014 1846.72 317.411 1848.28 314.634C1850.07 311.474 1854.64 305.784 1857.35 303.43C1861.42 299.911 1866.23 297.675 1870 293.691C1875.15 288.248 1878.44 280.599 1882.23 274.191C1886.91 266.282 1891.23 258.173 1896.02 250.335C1900.7 242.68 1904.98 234.677 1909.2 226.745C1913.55 218.542 1915.6 207.844 1918.99 199.041C1920.98 193.886 1922.06 188.296 1923.45 182.953C1924.04 180.658 1924.6 178.251 1925.57 176.08C1927.78 171.143 1929.01 164.97 1929.85 159.633C1930.5 155.538 1926.32 144.763 1925.45 139.909C1924.73 135.866 1924.31 131.782 1923.46 127.769C1922.26 122.12 1920.87 102.302 1922.04 96.8175C1922.72 93.6105 1924.37 85.6312 1925.73 83.048C1927.42 79.8175 1930.14 76.8753 1932.29 73.9272C1936.04 68.8019 1948.17 58.0688 1953.79 55.1442C1956.71 53.6202 1961.91 50.6427 1964.99 50.0013C1969.12 49.1422 1974.99 48.8656 1979.28 48.7008C1983.37 48.5478 1988.06 48.8362 1992.14 48.7656C1993.92 48.7361 1995.45 47.418 1994.02 45.8175C1993.13 44.8054 1986.02 42.175 1984.16 41.4807Z" fill="#9D966D"/>
</g>
</g>
</g>
</g>
</g>
<defs>
<clipPath id="clip0_12_2">
<rect width="2000" height="469" fill="white"/>
</clipPath>
<clipPath id="clip1_12_2">
<rect width="1994.61" height="465.004" fill="white" transform="translate(1.48212)"/>
</clipPath>
<clipPath id="clip2_12_2">
<rect width="1994.61" height="465.004" fill="white" transform="translate(1.48212)"/>
</clipPath>
<clipPath id="clip3_12_2">
<rect width="1441.47" height="336.471" fill="white" transform="translate(1.48206 64.266)"/>
</clipPath>
<clipPath id="clip4_12_2">
<rect width="1441.47" height="336.471" fill="white" transform="translate(1.48206 64.266)"/>
</clipPath>
<clipPath id="clip5_12_2">
<rect width="1441.47" height="336.471" fill="white" transform="translate(1.48206 64.266)"/>
</clipPath>
<clipPath id="clip6_12_2">
<rect width="1441.47" height="336.471" fill="white" transform="translate(1.48206 64.266)"/>
</clipPath>
<clipPath id="clip7_12_2">
<rect width="473.712" height="465.004" fill="white" transform="translate(1522.38)"/>
</clipPath>
<clipPath id="clip8_12_2">
<rect width="473.712" height="465.004" fill="white" transform="translate(1522.38)"/>
</clipPath>
</defs>
</svg>
